<svg width="206" height="57" viewBox="0 0 206 57" fill="none" xmlns="http://www.w3.org/2000/svg">
<path d="M77.32 29.5787C77.7189 30.2538 77.9337 31.0822 77.9337 32.0642V33.7211C77.9337 35.194 77.5041 36.3907 76.6142 37.2805C75.7244 38.1704 74.5584 38.5999 73.0548 38.5999H67.8691V18.072H72.7787C74.2515 18.072 75.4482 18.5016 76.3381 19.3915C77.2279 20.2813 77.6575 21.478 77.6575 22.9509V24.0248C77.6575 25.8659 76.9518 27.1853 75.571 27.9524C76.3381 28.382 76.9211 28.9036 77.32 29.5787ZM70.9683 21.0484V26.6023H72.3491C73.0855 26.6023 73.6378 26.4182 74.006 26.05C74.3743 25.6818 74.5584 25.1295 74.5584 24.393V22.9509C74.5584 22.3372 74.4049 21.8769 74.0674 21.5394C73.7299 21.2018 73.2696 21.0484 72.6559 21.0484H70.9683ZM74.8038 31.7573C74.8038 31.0209 74.6197 30.4686 74.2515 30.1003C73.8833 29.7321 73.331 29.548 72.5946 29.548H70.9376V35.7156H72.8707C73.4844 35.7156 73.9447 35.5622 74.2822 35.2247C74.6197 34.8871 74.7732 34.4269 74.7732 33.8132V31.7573H74.8038Z" fill="white"/>
<path d="M81.1372 37.5846C80.2474 36.6947 79.7871 35.5287 79.7871 34.1172V18.1306H82.8863V34.1172C82.8863 34.7002 83.0397 35.1605 83.3772 35.498C83.684 35.8356 84.1136 35.989 84.6353 35.989C85.1569 35.989 85.5558 35.8356 85.8933 35.498C86.2002 35.1605 86.3843 34.7002 86.3843 34.1172V18.1306H89.422V34.1172C89.422 35.5287 88.9925 36.6947 88.1026 37.5846C87.2128 38.4744 86.0774 38.904 84.6353 38.904C83.1931 38.904 82.0271 38.4744 81.1372 37.5846Z" fill="white"/>
<path d="M91.5835 18.1023H100.39V21.0173H94.6826V26.7246H99.2239V29.6397H94.6826V35.6538H100.39V38.5995H91.5835V18.1023Z" fill="white"/>
<path d="M102.266 18.1023H105.703L109.661 31.8796V18.1023H112.699V38.6302H109.416L105.304 25.4973V38.6302H102.266V18.1023Z" fill="white"/>
<path d="M116.113 37.5563C115.193 36.6358 114.732 35.4391 114.732 33.9662V22.7664C114.732 21.2935 115.193 20.0968 116.113 19.1763C117.034 18.2558 118.23 17.8262 119.703 17.8262C121.176 17.8262 122.404 18.2864 123.293 19.1763C124.214 20.0968 124.674 21.2935 124.674 22.7664V33.9662C124.674 35.4391 124.214 36.6358 123.293 37.5563C122.373 38.4768 121.176 38.9064 119.703 38.9064C118.23 38.9064 117.034 38.4768 116.113 37.5563ZM121.084 35.4698C121.422 35.1322 121.575 34.6106 121.575 33.9662V22.7664C121.575 22.122 121.422 21.6311 121.084 21.2628C120.747 20.9253 120.286 20.7412 119.703 20.7412C119.12 20.7412 118.66 20.9253 118.323 21.2628C117.985 21.6004 117.832 22.122 117.832 22.7664V33.9662C117.832 34.6106 117.985 35.1015 118.323 35.4698C118.66 35.8073 119.12 35.9914 119.703 35.9914C120.286 35.9914 120.777 35.8073 121.084 35.4698Z" fill="white"/>
<path d="M132.54 18.106H141.223V21.021H135.669V27.0351H140.057V29.9809H135.669V38.6339H132.57V18.106H132.54Z" fill="white"/>
<path d="M143.144 18.106H146.243V38.6339H143.144V18.106Z" fill="white"/>
<path d="M148.738 18.106H152.174L156.133 31.8833V18.106H159.171V38.6339H155.887L151.776 25.5009V38.6339H148.738V18.106Z" fill="white"/>
<path d="M167.696 34.0926H164.352L163.677 38.6339H160.578L163.984 18.106H168.157L171.563 38.6339H168.402L167.696 34.0926ZM167.298 31.0855L166.039 22.4938L164.781 31.0855H167.298Z" fill="white"/>
<path d="M173.018 18.106H176.454L180.413 31.8833V18.106H183.45V38.6339H180.167L176.055 25.5009V38.6339H173.018V18.106Z" fill="white"/>
<path d="M186.956 37.593C186.066 36.7032 185.605 35.5372 185.605 34.0643V22.6803C185.605 21.2382 186.066 20.0722 186.956 19.1516C187.845 18.2618 189.042 17.8015 190.484 17.8015C191.926 17.8015 193.092 18.2618 194.013 19.1516C194.903 20.0415 195.363 21.2075 195.363 22.6803V25.0737H192.325V22.6803C192.325 22.0973 192.172 21.6371 191.834 21.2689C191.497 20.9313 191.067 20.7472 190.546 20.7472C190.024 20.7472 189.594 20.9313 189.257 21.2689C188.919 21.6064 188.766 22.0973 188.766 22.6803V34.0643C188.766 34.6473 188.919 35.1076 189.257 35.4758C189.594 35.8133 190.024 35.9974 190.546 35.9974C191.067 35.9974 191.497 35.8133 191.834 35.4758C192.172 35.1383 192.325 34.6473 192.325 34.0643V31.1493H195.363V34.0643C195.363 35.5065 194.903 36.6725 194.013 37.593C193.123 38.4829 191.957 38.9431 190.484 38.9431C189.011 38.9124 187.845 38.4829 186.956 37.593Z" fill="white"/>
<path d="M197.184 18.106H205.991V21.021H200.283V26.7283H204.825V29.6433H200.283V35.6575H205.991V38.6032H197.184V18.106Z" fill="white"/>
<path d="M28.3832 56.7663C44.0587 56.7663 56.7663 44.0587 56.7663 28.3832C56.7663 12.7076 44.0587 0 28.3832 0C12.7076 0 0 12.7076 0 28.3832C0 44.0587 12.7076 56.7663 28.3832 56.7663Z" fill="url(#paint0_linear_1504_26)"/>
<path d="M25.9494 19.2683C24.8141 19.2683 23.8936 20.1888 23.8936 21.3242C23.8936 22.4595 24.8141 23.38 25.9494 23.38H30.5521C31.6874 23.38 32.608 22.4595 32.608 21.3242C32.608 20.1888 31.6874 19.2683 30.5521 19.2683H25.9494ZM24.9982 21.3242C24.9982 20.8025 25.4278 20.4036 25.9187 20.4036H30.5214C31.043 20.4036 31.4419 20.8332 31.4419 21.3242C31.4419 21.8458 31.0124 22.2447 30.5214 22.2447H25.9187C25.4278 22.2447 24.9982 21.8151 24.9982 21.3242Z" fill="white"/>
<path d="M33.5354 25.2231C32.4 25.2231 31.4795 26.1437 31.4795 27.279C31.4795 28.4143 32.4 29.3349 33.5354 29.3349H38.138C39.2734 29.3349 40.1939 28.4143 40.1939 27.279C40.1939 26.1437 39.2734 25.2231 38.138 25.2231H33.5354ZM32.6148 27.279C32.6148 26.7574 33.0444 26.3585 33.5354 26.3585H38.138C38.6597 26.3585 39.0586 26.7881 39.0586 27.279C39.0586 27.8006 38.629 28.1995 38.138 28.1995H33.5354C33.0137 28.1995 32.6148 27.8006 32.6148 27.279Z" fill="white"/>
<path d="M33.5354 13.2876C32.4 13.2876 31.4795 14.2081 31.4795 15.3435C31.4795 16.4788 32.4 17.3993 33.5354 17.3993H38.138C39.2734 17.3993 40.1939 16.4788 40.1939 15.3435C40.1939 14.2081 39.2734 13.2876 38.138 13.2876H33.5354ZM32.6148 15.3435C32.6148 14.8218 33.0444 14.4229 33.5354 14.4229H38.138C38.6597 14.4229 39.0586 14.8525 39.0586 15.3435C39.0586 15.8344 38.629 16.264 38.138 16.264H33.5354C33.0137 16.2947 32.6148 15.8651 32.6148 15.3435Z" fill="white"/>
<path fill-rule="evenodd" clip-rule="evenodd" d="M11.4423 26.604C10.9821 26.604 10.6445 26.9722 10.6445 27.4018V40.412C10.6445 40.8723 11.0127 41.2098 11.4423 41.2098H18.4998C18.96 41.2098 19.2976 40.8416 19.2976 40.412V39.2153C19.8499 39.2767 20.4943 39.4915 21.2 39.7983C21.9057 40.1052 22.6729 40.5041 23.4707 40.9337C23.6548 41.0257 23.8389 41.1178 24.023 41.2098C26.0175 42.2531 28.2881 43.3577 30.6815 43.3577C33.0442 43.3577 36.2047 42.2531 39.0277 40.8723C40.4392 40.1665 41.7586 39.3994 42.8939 38.6323C43.9986 37.8652 44.9191 37.0981 45.4714 36.3924C46.0238 35.7173 46.1772 34.9502 46.0544 34.2444C45.9317 33.5694 45.5328 32.9557 45.0112 32.5568C43.9986 31.7283 42.3416 31.4828 41.1449 32.6795C40.2244 33.6001 39.2118 34.3365 38.2913 34.8581C37.5855 35.257 36.9718 35.4718 36.4809 35.5946C36.3581 34.9502 36.0206 34.4285 35.5603 34.0297C34.9773 33.5387 34.2102 33.2625 33.4124 33.1091C31.9089 32.8023 30.1292 32.8943 28.9325 32.9557C28.6563 32.7716 28.3495 32.5875 28.0426 32.3727C27.9199 32.2806 27.7665 32.1886 27.6131 32.0965C27.0607 31.7283 26.4164 31.3294 25.6493 30.9305C24.1764 30.2248 22.2126 29.6725 19.3282 29.6111V27.4325C19.3282 26.9722 18.96 26.6347 18.5304 26.6347H11.4423V26.604ZM19.2976 30.6544V38.1107C20.0647 38.1721 20.8625 38.4482 21.6296 38.7857C22.3967 39.1233 23.1945 39.5529 23.9923 39.9824C24.1764 40.0745 24.3298 40.1666 24.5139 40.2586C26.5084 41.3019 28.5643 42.2838 30.6508 42.2838C32.7681 42.2838 35.7445 41.2712 38.5061 39.9211C39.8869 39.246 41.1756 38.4789 42.2189 37.7425C43.2928 37.006 44.1213 36.3003 44.5816 35.7173C44.9498 35.257 45.0112 34.8274 44.9498 34.4592C44.8884 34.0603 44.643 33.6921 44.3054 33.416C43.5997 32.833 42.5871 32.7409 41.8814 33.4466C40.8994 34.4285 39.7948 35.2263 38.7822 35.8094C37.7696 36.3617 36.7877 36.7299 35.9592 36.7299C35.9592 36.7299 35.9592 36.7299 35.9286 36.7299H25.281C24.9742 36.7299 24.7287 36.4844 24.7287 36.1776C24.7287 35.8707 24.9742 35.6252 25.281 35.6252H35.3762C35.2842 35.2877 35.1001 35.0422 34.8546 34.8274C34.4557 34.4899 33.9034 34.2751 33.1976 34.1217C31.7862 33.8455 30.0678 33.9376 28.8404 33.999H28.687L28.5336 33.9069C28.1654 33.6921 27.7665 33.416 27.3983 33.1705C27.2755 33.0784 27.1528 32.9864 27.0301 32.925C26.5084 32.5568 25.9254 32.1886 25.2197 31.851C23.8389 31.268 22.0592 30.7157 19.2976 30.6544ZM11.7185 40.1359V27.678H18.2236V40.1359H11.7185Z" fill="white"/>
<mask id="mask0_1504_26" style="mask-type:alpha" maskUnits="userSpaceOnUse" x="10" y="26" width="37" height="18">
<path d="M46.298 26.417H10.4585V43.4776H46.298V26.417Z" fill="white"/>
<path fill-rule="evenodd" clip-rule="evenodd" d="M11.4389 26.604C10.9786 26.604 10.6411 26.9722 10.6411 27.4018V40.412C10.6411 40.8723 11.0093 41.2098 11.4389 41.2098H18.4963C18.9566 41.2098 19.2941 40.8416 19.2941 40.412V39.2153C19.8465 39.2767 20.4908 39.4915 21.1966 39.7983C21.9023 40.1052 22.6694 40.5041 23.4672 40.9337C23.6513 41.0257 23.8355 41.1178 24.0196 41.2098C26.014 42.2531 28.2847 43.3577 30.6781 43.3577C33.0408 43.3577 36.2013 42.2531 39.0243 40.8723C40.4358 40.1665 41.7552 39.3994 42.8905 38.6323C43.9952 37.8652 44.9157 37.0981 45.468 36.3924C46.0203 35.7173 46.1738 34.9502 46.051 34.2444C45.9283 33.5694 45.5294 32.9557 45.0077 32.5568C43.9952 31.7283 42.3382 31.4828 41.1415 32.6795C40.221 33.6001 39.2084 34.3365 38.2878 34.8581C37.5821 35.257 36.9684 35.4718 36.4775 35.5946C36.3547 34.9502 36.0172 34.4285 35.5569 34.0297C34.9739 33.5387 34.2068 33.2625 33.409 33.1091C31.9055 32.8023 30.1258 32.8943 28.9291 32.9557C28.6529 32.7716 28.3461 32.5875 28.0392 32.3727C27.9165 32.2806 27.7631 32.1886 27.6096 32.0965C27.0573 31.7283 26.4129 31.3294 25.6458 30.9305C24.173 30.2248 22.2092 29.6725 19.3248 29.6111V27.4325C19.3248 26.9722 18.9566 26.6347 18.527 26.6347H11.4389V26.604ZM19.2941 30.6544V38.1107C20.0613 38.1721 20.8591 38.4482 21.6262 38.7857C22.3933 39.1233 23.1911 39.5529 23.9889 39.9824C24.173 40.0745 24.3264 40.1666 24.5105 40.2586C26.505 41.3019 28.5609 42.2838 30.6474 42.2838C32.7646 42.2838 35.741 41.2712 38.5026 39.9211C39.8834 39.246 41.1722 38.4789 42.2155 37.7425C43.2894 37.006 44.1179 36.3003 44.5782 35.7173C44.9464 35.257 45.0078 34.8274 44.9464 34.4592C44.885 34.0603 44.6395 33.6921 44.302 33.416C43.5963 32.833 42.5837 32.7409 41.8779 33.4466C40.896 34.4285 39.7914 35.2263 38.7788 35.8094C37.7662 36.3617 36.7843 36.7299 35.9558 36.7299C35.9558 36.7299 35.9558 36.7299 35.9251 36.7299H25.2776C24.9708 36.7299 24.7253 36.4844 24.7253 36.1776C24.7253 35.8707 24.9708 35.6252 25.2776 35.6252H35.3728C35.2808 35.2877 35.0967 35.0422 34.8512 34.8274C34.4523 34.4899 33.9 34.2751 33.1942 34.1217C31.7827 33.8455 30.0644 33.9376 28.837 33.999H28.6836L28.5302 33.9069C28.162 33.6921 27.7631 33.416 27.3948 33.1705C27.2721 33.0784 27.1494 32.9864 27.0266 32.925C26.505 32.5568 25.922 32.1886 25.2163 31.851C23.8354 31.268 22.0557 30.7157 19.2941 30.6544ZM11.7151 40.1359V27.678H18.2202V40.1359H11.7151Z" fill="#010101"/>
</mask>
<g mask="url(#mask0_1504_26)">
<path d="M19.2896 39.2159V39.1545H19.2282V39.2159H19.2896ZM21.192 39.7989L21.2227 39.7375L21.192 39.7989ZM23.4934 40.9342L23.4627 40.9649L23.4934 40.9342ZM23.4934 40.9342L23.5241 40.9036L23.4934 40.9342ZM24.015 41.2411L23.9843 41.2718L24.015 41.2411ZM39.0197 40.9036L38.989 40.8729L39.0197 40.9036ZM42.886 38.6636L42.9167 38.6943L42.886 38.6636ZM45.4635 36.4236L45.4942 36.4543L45.4635 36.4236ZM46.0465 34.2757H46.1078H46.0465ZM45.0032 32.5881L45.0339 32.5574L45.0032 32.5881ZM41.137 32.7108L41.1676 32.7415L41.137 32.7108ZM38.2833 34.8894L38.314 34.9201L38.2833 34.8894ZM36.4422 35.6258H36.3809V35.6872H36.4422V35.6258ZM35.5524 34.0302L35.5831 33.9995L35.5524 34.0302ZM33.4045 33.1097V33.0483V33.1097ZM28.9245 32.9563L28.8938 32.987H28.9245V32.9563ZM28.004 32.3426L28.0347 32.3119L28.004 32.3426ZM27.6051 32.0664L27.5744 32.0971L27.6051 32.0664ZM25.6413 30.9311L25.6106 30.9925L25.6413 30.9311ZM19.2896 29.581H19.2282V29.6423H19.2896V29.581ZM19.2896 30.6549V30.5936H19.2282V30.6549H19.2896ZM19.2896 38.142H19.2282V38.2033H19.2896V38.142ZM21.6523 38.817L21.6216 38.8784L21.6523 38.817ZM24.015 39.983L24.0457 39.9523L24.015 39.983ZM24.015 39.983L23.9843 40.0137L24.015 39.983ZM24.5366 40.2592L24.506 40.2899L24.5366 40.2592ZM38.5288 39.9523L38.5595 39.983L38.5288 39.9523ZM42.2723 37.7737L42.303 37.8044L42.2723 37.7737ZM44.6043 35.7486L44.635 35.7792L44.6043 35.7486ZM45.0032 34.4598H45.0646H45.0032ZM44.3281 33.4472L44.2975 33.4779L44.3281 33.4472ZM41.9041 33.4779L41.9347 33.5086L41.9041 33.4779ZM38.8049 35.8406L38.7743 35.8099L38.8049 35.8406ZM35.982 36.7611V36.6998V36.7611ZM35.3683 35.6872V35.7486H35.4296L35.399 35.6565L35.3683 35.6872ZM34.8466 34.8587L34.8159 34.8894L34.8466 34.8587ZM33.1897 34.1837V34.1223V34.1837ZM28.8018 34.0609V33.9995V34.0609ZM28.6484 34.0609L28.6177 34.0916L28.6484 34.0609ZM28.5256 33.9689L28.4949 33.9995L28.5256 33.9689ZM27.3596 33.2324L27.3903 33.2017L27.3596 33.2324ZM26.9914 32.9563L27.0221 32.9256L26.9914 32.9563ZM25.1503 31.8823L25.181 31.8209L25.1503 31.8823ZM11.7105 27.6785V27.6172H11.6492V27.6785H11.7105ZM11.7105 40.1364H11.6492V40.1978H11.7105V40.1364ZM18.2156 27.6785H18.277V27.6172H18.2156V27.6785ZM18.2156 40.1364V40.1978H18.277V40.1364H18.2156ZM10.6672 27.4024C10.6672 26.9728 11.0048 26.6353 11.4344 26.6353V26.5432C10.9434 26.5432 10.5752 26.9421 10.5752 27.4024H10.6672ZM10.6672 40.4126V27.4024H10.5752V40.4126H10.6672ZM11.4344 41.1797C11.0048 41.1797 10.6672 40.8422 10.6672 40.4126H10.5752C10.5752 40.9036 10.9741 41.2718 11.4344 41.2718V41.1797ZM18.4918 41.1797H11.4344V41.2718H18.4918V41.1797ZM19.2589 40.4126C19.2589 40.8422 18.9214 41.1797 18.4918 41.1797V41.2718C18.9827 41.2718 19.351 40.8729 19.351 40.4126H19.2589ZM19.2589 39.2159V40.4126H19.351V39.2159H19.2589ZM19.2896 39.2773C19.8419 39.3386 20.4863 39.5534 21.192 39.8603L21.2227 39.7682C20.517 39.4614 19.8726 39.2466 19.2896 39.1852V39.2773ZM21.192 39.8603C21.8978 40.1671 22.6649 40.566 23.4627 40.9956L23.5241 40.9036C22.7263 40.474 21.9591 40.0751 21.2534 39.7682L21.192 39.8603ZM23.4627 40.9956L23.5241 40.9036L23.4627 40.9956ZM23.4627 40.9956C23.6468 41.0877 23.8309 41.1797 24.015 41.2718L24.0764 41.1797C23.8923 41.0877 23.7082 40.9956 23.5241 40.9036L23.4627 40.9956ZM24.015 41.2718C26.0095 42.315 28.2801 43.4504 30.7042 43.4504V43.3583C28.3415 43.3583 26.0709 42.2537 24.0764 41.2104L24.015 41.2718ZM30.6735 43.4504C33.0362 43.4504 36.2274 42.3457 39.0197 40.9649L38.989 40.8729C36.1968 42.2537 33.0362 43.3583 30.6735 43.3583V43.4504ZM39.0504 40.9649C40.4619 40.2592 41.812 39.4921 42.9167 38.725L42.8553 38.6329C41.7506 39.4 40.4005 40.1671 38.989 40.8729L39.0504 40.9649ZM42.9167 38.725C44.0213 37.9578 44.9418 37.16 45.5248 36.4543L45.4328 36.3929C44.8805 37.0987 43.9599 37.8658 42.8553 38.6329L42.9167 38.725ZM45.4942 36.4543C46.0465 35.7486 46.2306 34.9815 46.1078 34.2757L46.0158 34.3064C46.1385 34.9815 45.9544 35.7179 45.4328 36.3929L45.4942 36.4543ZM46.1078 34.2757C45.9851 33.57 45.5555 32.987 45.0339 32.5574L44.9725 32.6494C45.4942 33.0483 45.8931 33.6313 46.0158 34.3064L46.1078 34.2757ZM45.0339 32.5574C43.9906 31.7289 42.303 31.4834 41.0756 32.6801L41.137 32.7415C42.303 31.5755 43.9292 31.8209 44.9418 32.6187L45.0339 32.5574ZM41.1063 32.6801C40.1857 33.6006 39.2038 34.3371 38.2526 34.8587L38.314 34.9508C39.2652 34.4291 40.2778 33.6927 41.1983 32.7722L41.1063 32.6801ZM38.2526 34.8587C37.5469 35.2576 36.9332 35.4724 36.4422 35.5645L36.4729 35.6565C36.9639 35.5645 37.6082 35.319 38.314 34.9201L38.2526 34.8587ZM36.5036 35.5951C36.3809 34.9201 36.0433 34.3984 35.5831 33.9995L35.5217 34.0916C35.982 34.4905 36.2888 34.9815 36.4115 35.6258L36.5036 35.5951ZM35.5831 33.9995C35.0001 33.5086 34.2023 33.2018 33.4351 33.0483L33.4045 33.1404C34.2023 33.2938 34.9387 33.57 35.5217 34.0609L35.5831 33.9995ZM33.4045 33.0483C31.9009 32.7415 30.1212 32.8335 28.9245 32.8949V32.987C30.1212 32.9256 31.9009 32.8335 33.4045 33.1404V33.0483ZM28.9552 32.9256C28.679 32.7415 28.3722 32.5574 28.0654 32.3426L28.004 32.4346C28.3415 32.6494 28.6177 32.8642 28.8938 33.0483L28.9552 32.9256ZM28.0347 32.3119C27.9119 32.2198 27.7585 32.1278 27.6051 32.0357L27.5437 32.1278C27.6971 32.2198 27.8199 32.3119 27.9733 32.404L28.0347 32.3119ZM27.6358 32.0357C27.0835 31.6675 26.4391 31.2379 25.672 30.8697L25.6413 30.9618C26.4084 31.33 27.0528 31.7289 27.6051 32.0971L27.6358 32.0357ZM25.6413 30.8697C24.1684 30.164 22.1739 29.581 19.2896 29.5196V29.6117C22.1739 29.673 24.1377 30.2254 25.6106 30.9311L25.6413 30.8697ZM19.2589 27.4024V29.581H19.351V27.4024H19.2589ZM18.4918 26.6353C18.9214 26.6353 19.2589 26.9728 19.2589 27.4024H19.351C19.351 26.9114 18.9521 26.5432 18.4918 26.5432V26.6353ZM11.4344 26.6353H18.4918V26.5432H11.4344V26.6353ZM19.2589 30.6549V38.1113H19.351V30.6549H19.2589ZM21.6523 38.7556C20.8545 38.4181 20.0874 38.142 19.2896 38.0806V38.1726C20.0567 38.234 20.8238 38.5102 21.6216 38.8477L21.6523 38.7556ZM24.015 39.9523C23.2172 39.5228 22.4194 39.0932 21.6523 38.7556L21.6216 38.8477C22.3887 39.1852 23.1865 39.6148 23.9843 40.0137L24.015 39.9523ZM24.015 39.9523L23.9536 40.0444L24.015 39.9523ZM24.5673 40.2285C24.3832 40.1364 24.2298 40.0444 24.0457 39.9523L23.9843 40.0444C24.1684 40.1364 24.3219 40.2285 24.506 40.3205L24.5673 40.2285ZM30.6735 42.2537C28.6177 42.2537 26.5618 41.2718 24.5366 40.2285L24.4753 40.3205C26.4698 41.3638 28.5563 42.3764 30.6429 42.3764V42.2537H30.6735ZM38.5288 39.891C35.7672 41.2411 32.7908 42.2537 30.7042 42.2537V42.3457C32.8215 42.3457 35.8285 41.3331 38.5901 39.983L38.5288 39.891ZM42.2416 37.7431C41.1676 38.4795 39.8789 39.2466 38.5288 39.9217L38.5595 40.0137C39.9403 39.3386 41.229 38.5715 42.303 37.8351L42.2416 37.7431ZM44.5736 35.7179C44.1133 36.3009 43.3156 37.0066 42.2416 37.7431L42.303 37.8351C43.3769 37.0987 44.2054 36.3623 44.6657 35.7792L44.5736 35.7179ZM44.9418 34.4905C45.0032 34.8587 44.9418 35.2576 44.5736 35.7179L44.6657 35.7792C45.0339 35.319 45.1259 34.8587 45.0646 34.4598L44.9418 34.4905ZM44.2975 33.4779C44.635 33.7541 44.8805 34.1223 44.9418 34.4905L45.0339 34.4598C44.9725 34.0609 44.727 33.6927 44.3588 33.3859L44.2975 33.4779ZM41.9347 33.5086C42.6098 32.8335 43.5917 32.9256 44.2975 33.4779L44.3588 33.3859C43.6224 32.8028 42.5791 32.7108 41.8427 33.4472L41.9347 33.5086ZM38.8356 35.902C39.8789 35.319 40.9528 34.5212 41.9347 33.5393L41.8734 33.4779C40.8915 34.4598 39.8175 35.2576 38.7743 35.8406L38.8356 35.902ZM35.982 36.8225C36.8104 36.8225 37.823 36.4543 38.8356 35.902L38.7743 35.8099C37.7617 36.3623 36.7798 36.6998 35.982 36.7305V36.8225ZM35.9513 36.8225C35.982 36.8225 35.982 36.8225 35.9513 36.8225L35.982 36.7305C35.982 36.7305 35.982 36.7305 35.9513 36.7305V36.8225ZM25.2731 36.8225H35.982V36.7305H25.2731V36.8225ZM24.6594 36.2088C24.6594 36.5464 24.9355 36.7918 25.2424 36.7918V36.6998C24.9662 36.6998 24.7514 36.485 24.7514 36.2088H24.6594ZM25.2731 35.6258C24.9355 35.6258 24.6901 35.902 24.6901 36.2088H24.7821C24.7821 35.9327 24.9969 35.7179 25.2731 35.7179V35.6258ZM35.3683 35.6258H25.2731V35.7179H35.3683V35.6258ZM34.8159 34.9201C35.0614 35.1349 35.2455 35.3803 35.3069 35.6872L35.399 35.6565C35.3069 35.319 35.1228 35.0428 34.8773 34.828L34.8159 34.9201ZM33.159 34.2143C33.8647 34.3678 34.417 34.5826 34.7853 34.8894L34.8466 34.7973C34.4477 34.4598 33.8647 34.245 33.159 34.0916V34.2143ZM28.8325 34.0916C30.0599 34.0302 31.7782 33.9382 33.1897 34.2143L33.2204 34.1223C31.8089 33.8461 30.0599 33.9382 28.8325 33.9995V34.0916ZM28.6484 34.0916H28.8018V33.9995H28.6484V34.0916ZM28.4949 34.0302L28.6484 34.1223L28.679 33.9995L28.5256 33.9075L28.4949 34.0302ZM27.3289 33.2631C27.7278 33.5393 28.096 33.7848 28.4949 33.9995L28.5563 33.9075C28.1881 33.6927 27.7892 33.4165 27.421 33.1711L27.3289 33.2631ZM26.9607 33.0176C27.0835 33.1097 27.2062 33.2017 27.3289 33.2631L27.3903 33.1711C27.2676 33.079 27.1448 32.987 27.0221 32.9256L26.9607 33.0176ZM25.1503 31.9437C25.8561 32.2812 26.4391 32.6494 26.9607 33.0176L27.0221 32.9256C26.5005 32.5574 25.9174 32.1892 25.181 31.8516L25.1503 31.9437ZM19.2896 30.7163C22.0205 30.7777 23.8002 31.2993 25.1196 31.9437L25.1503 31.8516C23.8309 31.2073 22.0205 30.6856 19.2589 30.6243L19.2896 30.7163ZM11.6492 27.6785V40.1364H11.7412V27.6785H11.6492ZM18.2156 27.6172H11.7105V27.7092H18.2156V27.6172ZM18.277 40.1364V27.6785H18.185V40.1364H18.277ZM11.7105 40.1978H18.2156V40.1058H11.7105V40.1978Z" fill="white"/>
</g>
<defs>
<linearGradient id="paint0_linear_1504_26" x1="1.80394" y1="1.80149" x2="59.608" y2="59.6056" gradientUnits="userSpaceOnUse">
<stop stop-color="#4E9D70"/>
<stop offset="1" stop-color="#056A37"/>
</linearGradient>
</defs>
</svg>
