<svg width="243" height="40" viewBox="0 0 243 40" fill="none" xmlns="http://www.w3.org/2000/svg">
<path d="M69.4217 19.264C70.3497 19.568 71.0857 20.08 71.6297 20.8C72.1737 21.504 72.4457 22.384 72.4457 23.44C72.4457 24.896 71.8857 26.024 70.7657 26.824C69.6457 27.608 68.0137 28 65.8697 28H57.5177V11.2H65.3897C67.3737 11.2 68.9017 11.592 69.9737 12.376C71.0457 13.144 71.5817 14.208 71.5817 15.568C71.5817 16.4 71.3897 17.136 71.0057 17.776C70.6217 18.416 70.0937 18.912 69.4217 19.264ZM60.6377 13.648V18.28H65.0537C66.1417 18.28 66.9737 18.088 67.5497 17.704C68.1417 17.304 68.4377 16.728 68.4377 15.976C68.4377 15.208 68.1417 14.632 67.5497 14.248C66.9737 13.848 66.1417 13.648 65.0537 13.648H60.6377ZM65.6777 25.552C68.0937 25.552 69.3017 24.744 69.3017 23.128C69.3017 21.512 68.0937 20.704 65.6777 20.704H60.6377V25.552H65.6777ZM87.8955 15.184V28H85.0395V26.368C84.5595 26.944 83.9595 27.392 83.2395 27.712C82.5195 28.016 81.7435 28.168 80.9115 28.168C79.1995 28.168 77.8475 27.696 76.8555 26.752C75.8795 25.792 75.3915 24.376 75.3915 22.504V15.184H78.3915V22.096C78.3915 23.248 78.6475 24.112 79.1595 24.688C79.6875 25.248 80.4315 25.528 81.3915 25.528C82.4635 25.528 83.3115 25.2 83.9355 24.544C84.5755 23.872 84.8955 22.912 84.8955 21.664V15.184H87.8955ZM97.9195 25.624C99.3115 25.624 100.471 25.16 101.399 24.232L102.983 26.08C102.423 26.768 101.703 27.288 100.823 27.64C99.9435 27.992 98.9515 28.168 97.8475 28.168C96.4395 28.168 95.1995 27.888 94.1275 27.328C93.0555 26.768 92.2235 25.992 91.6315 25C91.0555 23.992 90.7675 22.856 90.7675 21.592C90.7675 20.344 91.0475 19.224 91.6075 18.232C92.1835 17.224 92.9675 16.44 93.9595 15.88C94.9675 15.32 96.1035 15.04 97.3675 15.04C98.5675 15.04 99.6555 15.304 100.631 15.832C101.623 16.344 102.407 17.088 102.983 18.064C103.559 19.024 103.847 20.152 103.847 21.448L94.0315 23.368C94.3355 24.104 94.8235 24.664 95.4955 25.048C96.1675 25.432 96.9755 25.624 97.9195 25.624ZM97.3675 17.44C96.2635 17.44 95.3675 17.8 94.6795 18.52C94.0075 19.24 93.6715 20.208 93.6715 21.424V21.448L100.919 20.056C100.711 19.272 100.287 18.64 99.6475 18.16C99.0235 17.68 98.2635 17.44 97.3675 17.44ZM114.002 15.04C115.618 15.04 116.914 15.512 117.89 16.456C118.866 17.4 119.354 18.8 119.354 20.656V28H116.354V21.04C116.354 19.92 116.09 19.08 115.562 18.52C115.034 17.944 114.282 17.656 113.306 17.656C112.202 17.656 111.33 17.992 110.69 18.664C110.05 19.32 109.73 20.272 109.73 21.52V28H106.73V15.184H109.586V16.84C110.082 16.248 110.706 15.8 111.458 15.496C112.21 15.192 113.058 15.04 114.002 15.04ZM129.037 28.168C127.741 28.168 126.573 27.888 125.533 27.328C124.493 26.768 123.677 25.992 123.085 25C122.509 23.992 122.221 22.856 122.221 21.592C122.221 20.328 122.509 19.2 123.085 18.208C123.677 17.216 124.493 16.44 125.533 15.88C126.573 15.32 127.741 15.04 129.037 15.04C130.349 15.04 131.525 15.32 132.565 15.88C133.605 16.44 134.413 17.216 134.989 18.208C135.581 19.2 135.877 20.328 135.877 21.592C135.877 22.856 135.581 23.992 134.989 25C134.413 25.992 133.605 26.768 132.565 27.328C131.525 27.888 130.349 28.168 129.037 28.168ZM129.037 25.6C130.141 25.6 131.053 25.232 131.773 24.496C132.493 23.76 132.853 22.792 132.853 21.592C132.853 20.392 132.493 19.424 131.773 18.688C131.053 17.952 130.141 17.584 129.037 17.584C127.933 17.584 127.021 17.952 126.301 18.688C125.597 19.424 125.245 20.392 125.245 21.592C125.245 22.792 125.597 23.76 126.301 24.496C127.021 25.232 127.933 25.6 129.037 25.6ZM153.01 13.696C151.57 13.696 150.482 14.016 149.746 14.656C149.01 15.296 148.642 16.24 148.642 17.488V18.928H155.962V21.568H148.642V28H145.522V17.488C145.522 15.456 146.17 13.864 147.466 12.712C148.778 11.544 150.578 10.96 152.866 10.96C153.826 10.96 154.722 11.064 155.554 11.272C156.386 11.48 157.114 11.784 157.738 12.184L156.754 14.728C155.762 14.04 154.514 13.696 153.01 13.696ZM159.558 15.184H162.558V28H159.558V15.184ZM161.07 13.072C160.526 13.072 160.07 12.904 159.702 12.568C159.334 12.216 159.15 11.784 159.15 11.272C159.15 10.76 159.334 10.336 159.702 10C160.07 9.648 160.526 9.472 161.07 9.472C161.614 9.472 162.07 9.64 162.438 9.976C162.806 10.296 162.99 10.704 162.99 11.2C162.99 11.728 162.806 12.176 162.438 12.544C162.086 12.896 161.63 13.072 161.07 13.072ZM173.767 15.04C175.383 15.04 176.679 15.512 177.655 16.456C178.631 17.4 179.119 18.8 179.119 20.656V28H176.119V21.04C176.119 19.92 175.855 19.08 175.327 18.52C174.799 17.944 174.047 17.656 173.071 17.656C171.967 17.656 171.095 17.992 170.455 18.664C169.815 19.32 169.495 20.272 169.495 21.52V28H166.495V15.184H169.351V16.84C169.847 16.248 170.471 15.8 171.223 15.496C171.975 15.192 172.823 15.04 173.767 15.04ZM195.57 15.184V28H192.714V26.344C192.218 26.952 191.602 27.408 190.866 27.712C190.146 28.016 189.346 28.168 188.466 28.168C187.218 28.168 186.098 27.896 185.106 27.352C184.13 26.808 183.362 26.04 182.802 25.048C182.258 24.056 181.986 22.904 181.986 21.592C181.986 20.28 182.258 19.136 182.802 18.16C183.362 17.168 184.13 16.4 185.106 15.856C186.098 15.312 187.218 15.04 188.466 15.04C189.298 15.04 190.058 15.184 190.746 15.472C191.45 15.76 192.058 16.184 192.57 16.744V15.184H195.57ZM188.802 25.6C189.906 25.6 190.818 25.232 191.538 24.496C192.258 23.76 192.618 22.792 192.618 21.592C192.618 20.392 192.258 19.424 191.538 18.688C190.818 17.952 189.906 17.584 188.802 17.584C187.698 17.584 186.786 17.952 186.066 18.688C185.362 19.424 185.01 20.392 185.01 21.592C185.01 22.792 185.362 23.76 186.066 24.496C186.786 25.232 187.698 25.6 188.802 25.6ZM206.767 15.04C208.383 15.04 209.679 15.512 210.655 16.456C211.631 17.4 212.119 18.8 212.119 20.656V28H209.119V21.04C209.119 19.92 208.855 19.08 208.327 18.52C207.799 17.944 207.047 17.656 206.071 17.656C204.967 17.656 204.095 17.992 203.455 18.664C202.815 19.32 202.495 20.272 202.495 21.52V28H199.495V15.184H202.351V16.84C202.847 16.248 203.471 15.8 204.223 15.496C204.975 15.192 205.823 15.04 206.767 15.04ZM221.922 28.168C220.594 28.168 219.402 27.888 218.346 27.328C217.29 26.768 216.466 25.992 215.874 25C215.282 23.992 214.986 22.856 214.986 21.592C214.986 20.328 215.282 19.2 215.874 18.208C216.466 17.216 217.282 16.44 218.322 15.88C219.378 15.32 220.578 15.04 221.922 15.04C223.186 15.04 224.29 15.296 225.234 15.808C226.194 16.32 226.914 17.056 227.394 18.016L225.09 19.36C224.722 18.768 224.258 18.328 223.698 18.04C223.154 17.736 222.554 17.584 221.898 17.584C220.778 17.584 219.85 17.952 219.114 18.688C218.378 19.408 218.01 20.376 218.01 21.592C218.01 22.808 218.37 23.784 219.09 24.52C219.826 25.24 220.762 25.6 221.898 25.6C222.554 25.6 223.154 25.456 223.698 25.168C224.258 24.864 224.722 24.416 225.09 23.824L227.394 25.168C226.898 26.128 226.17 26.872 225.21 27.4C224.266 27.912 223.17 28.168 221.922 28.168ZM235.896 25.624C237.288 25.624 238.448 25.16 239.376 24.232L240.96 26.08C240.4 26.768 239.68 27.288 238.8 27.64C237.92 27.992 236.928 28.168 235.824 28.168C234.416 28.168 233.176 27.888 232.104 27.328C231.032 26.768 230.2 25.992 229.608 25C229.032 23.992 228.744 22.856 228.744 21.592C228.744 20.344 229.024 19.224 229.584 18.232C230.16 17.224 230.944 16.44 231.936 15.88C232.944 15.32 234.08 15.04 235.344 15.04C236.544 15.04 237.632 15.304 238.608 15.832C239.6 16.344 240.384 17.088 240.96 18.064C241.536 19.024 241.824 20.152 241.824 21.448L232.008 23.368C232.312 24.104 232.8 24.664 233.472 25.048C234.144 25.432 234.952 25.624 235.896 25.624ZM235.344 17.44C234.24 17.44 233.344 17.8 232.656 18.52C231.984 19.24 231.648 20.208 231.648 21.424V21.448L238.896 20.056C238.688 19.272 238.264 18.64 237.624 18.16C237 17.68 236.24 17.44 235.344 17.44Z" fill="white"/>
<path d="M20 40C31.0457 40 40 31.0457 40 20C40 8.9543 31.0457 0 20 0C8.9543 0 0 8.9543 0 20C0 31.0457 8.9543 40 20 40Z" fill="white"/>
<path d="M18.2887 13.5771C17.4887 13.5771 16.8401 14.2258 16.8401 15.0258C16.8401 15.8258 17.4887 16.4744 18.2887 16.4744H21.532C22.332 16.4744 22.9806 15.8258 22.9806 15.0258C22.9806 14.2258 22.332 13.5771 21.532 13.5771H18.2887ZM17.6185 15.0258C17.6185 14.6582 17.9212 14.3771 18.2671 14.3771H21.5104C21.8779 14.3771 22.159 14.6799 22.159 15.0258C22.159 15.3934 21.8563 15.6744 21.5104 15.6744H18.2671C17.9212 15.6744 17.6185 15.3717 17.6185 15.0258Z" fill="#0E4C19"/>
<path d="M23.6342 17.7729C22.8342 17.7729 22.1855 18.4216 22.1855 19.2216C22.1855 20.0216 22.8342 20.6702 23.6342 20.6702H26.8774C27.6774 20.6702 28.3261 20.0216 28.3261 19.2216C28.3261 18.4216 27.6774 17.7729 26.8774 17.7729H23.6342ZM22.9855 19.2216C22.9855 18.854 23.2882 18.573 23.6342 18.573H26.8774C27.245 18.573 27.5261 18.8757 27.5261 19.2216C27.5261 19.5892 27.2234 19.8702 26.8774 19.8702H23.6342C23.2666 19.8702 22.9855 19.5892 22.9855 19.2216Z" fill="#0E4C19"/>
<path d="M23.6342 9.36279C22.8342 9.36279 22.1855 10.0114 22.1855 10.8114C22.1855 11.6114 22.8342 12.2601 23.6342 12.2601H26.8774C27.6774 12.2601 28.3261 11.6114 28.3261 10.8114C28.3261 10.0114 27.6774 9.36279 26.8774 9.36279H23.6342ZM22.9855 10.8114C22.9855 10.4439 23.2882 10.1628 23.6342 10.1628H26.8774C27.245 10.1628 27.5261 10.4655 27.5261 10.8114C27.5261 11.1574 27.2234 11.4601 26.8774 11.4601H23.6342C23.2666 11.4817 22.9855 11.179 22.9855 10.8114Z" fill="#0E4C19"/>
<path fill-rule="evenodd" clip-rule="evenodd" d="M8.06582 18.7461C7.7415 18.7461 7.50366 19.0056 7.50366 19.3083V28.4758C7.50366 28.8001 7.76312 29.038 8.06582 29.038H13.0388C13.3631 29.038 13.601 28.7785 13.601 28.4758V27.6326C13.9901 27.6758 14.4442 27.8272 14.9415 28.0434C15.4388 28.2596 15.9793 28.5407 16.5415 28.8434C16.6712 28.9083 16.801 28.9731 16.9307 29.038C18.3361 29.7731 19.9361 30.5515 21.6226 30.5515C23.2874 30.5515 25.5145 29.7731 27.5037 28.8001C28.4983 28.3028 29.428 27.7623 30.228 27.2218C31.0064 26.6812 31.655 26.1407 32.0442 25.6434C32.4334 25.1677 32.5415 24.6272 32.455 24.1299C32.3685 23.6542 32.0874 23.2218 31.7199 22.9407C31.0064 22.3569 29.8388 22.1839 28.9956 23.0272C28.3469 23.6758 27.6334 24.1947 26.9847 24.5623C26.4874 24.8434 26.055 24.9947 25.7091 25.0812C25.6226 24.6272 25.3847 24.2596 25.0604 23.9785C24.6496 23.6326 24.1091 23.438 23.5469 23.3299C22.4874 23.1137 21.2334 23.1785 20.3901 23.2218C20.1956 23.092 19.9793 22.9623 19.7631 22.811C19.6766 22.7461 19.5685 22.6812 19.4604 22.6164C19.0712 22.3569 18.6172 22.0758 18.0766 21.7947C17.0388 21.2974 15.655 20.9083 13.6226 20.865V19.3299C13.6226 19.0056 13.3631 18.7677 13.0604 18.7677H8.06582V18.7461ZM13.601 21.6001V26.8542C14.1415 26.8974 14.7037 27.092 15.2442 27.3299C15.7847 27.5677 16.3469 27.8704 16.9091 28.1731C17.0388 28.238 17.1469 28.3029 17.2766 28.3677C18.682 29.1029 20.1307 29.7947 21.601 29.7947C23.0929 29.7947 25.1901 29.0812 27.1361 28.1299C28.1091 27.6542 29.0172 27.1137 29.7523 26.5947C30.5091 26.0758 31.0929 25.5785 31.4172 25.1677C31.6766 24.8434 31.7199 24.5407 31.6766 24.2812C31.6334 24.0001 31.4604 23.7407 31.2226 23.5461C30.7253 23.1353 30.0118 23.0704 29.5145 23.5677C28.8226 24.2596 28.0442 24.8218 27.3307 25.2326C26.6172 25.6218 25.9253 25.8812 25.3415 25.8812C25.3415 25.8812 25.3415 25.8812 25.3199 25.8812H17.8172C17.601 25.8812 17.428 25.7083 17.428 25.492C17.428 25.2758 17.601 25.1029 17.8172 25.1029H24.9307C24.8658 24.865 24.7361 24.692 24.5631 24.5407C24.282 24.3029 23.8929 24.1515 23.3956 24.0434C22.401 23.8488 21.1902 23.9137 20.3253 23.9569H20.2172L20.1091 23.892C19.8496 23.7407 19.5685 23.5461 19.3091 23.3731C19.2226 23.3083 19.1361 23.2434 19.0496 23.2001C18.682 22.9407 18.2712 22.6812 17.7739 22.4434C16.801 22.0326 15.5469 21.6434 13.601 21.6001ZM8.26042 28.2812V19.5029H12.8442V28.2812H8.26042Z" fill="#0E4C19"/>
<mask id="mask0_1174_346" style="mask-type:alpha" maskUnits="userSpaceOnUse" x="7" y="18" width="26" height="13">
<path d="M32.6259 18.6138H7.37183V30.6354H32.6259V18.6138Z" fill="white"/>
<path fill-rule="evenodd" clip-rule="evenodd" d="M8.0607 18.7461C7.73637 18.7461 7.49854 19.0056 7.49854 19.3083V28.4758C7.49854 28.8001 7.75799 29.038 8.0607 29.038H13.0337C13.358 29.038 13.5958 28.7785 13.5958 28.4758V27.6326C13.985 27.6758 14.4391 27.8272 14.9364 28.0434C15.4337 28.2596 15.9742 28.5407 16.5364 28.8434C16.6661 28.9083 16.7958 28.9731 16.9256 29.038C18.331 29.7731 19.931 30.5515 21.6175 30.5515C23.2823 30.5515 25.5093 29.7731 27.4985 28.8001C28.4931 28.3028 29.4229 27.7623 30.2229 27.2218C31.0012 26.6812 31.6499 26.1407 32.0391 25.6434C32.4283 25.1677 32.5364 24.6272 32.4499 24.1299C32.3634 23.6542 32.0823 23.2218 31.7148 22.9407C31.0012 22.3569 29.8337 22.1839 28.9904 23.0272C28.3418 23.6758 27.6283 24.1947 26.9796 24.5623C26.4823 24.8434 26.0499 24.9947 25.7039 25.0812C25.6175 24.6272 25.3796 24.2596 25.0553 23.9785C24.6445 23.6326 24.1039 23.438 23.5418 23.3299C22.4823 23.1137 21.2283 23.1785 20.385 23.2218C20.1904 23.092 19.9742 22.9623 19.758 22.811C19.6715 22.7461 19.5634 22.6812 19.4553 22.6164C19.0661 22.3569 18.612 22.0758 18.0715 21.7947C17.0337 21.2974 15.6499 20.9083 13.6175 20.865V19.3299C13.6175 19.0056 13.358 18.7677 13.0553 18.7677H8.0607V18.7461ZM13.5958 21.6001V26.8542C14.1364 26.8974 14.6985 27.092 15.2391 27.3299C15.7796 27.5677 16.3418 27.8704 16.9039 28.1731C17.0337 28.238 17.1418 28.3029 17.2715 28.3677C18.6769 29.1029 20.1256 29.7947 21.5958 29.7947C23.0877 29.7947 25.185 29.0812 27.131 28.1299C28.1039 27.6542 29.012 27.1137 29.7472 26.5947C30.5039 26.0758 31.0877 25.5785 31.412 25.1677C31.6715 24.8434 31.7148 24.5407 31.6715 24.2812C31.6283 24.0001 31.4553 23.7407 31.2175 23.5461C30.7202 23.1353 30.0066 23.0704 29.5093 23.5677C28.8175 24.2596 28.0391 24.8218 27.3256 25.2326C26.6121 25.6218 25.9202 25.8812 25.3364 25.8812C25.3364 25.8812 25.3364 25.8812 25.3148 25.8812H17.812C17.5958 25.8812 17.4229 25.7083 17.4229 25.492C17.4229 25.2758 17.5958 25.1029 17.812 25.1029H24.9256C24.8607 24.865 24.731 24.692 24.558 24.5407C24.2769 24.3029 23.8877 24.1515 23.3904 24.0434C22.3958 23.8488 21.185 23.9137 20.3202 23.9569H20.212L20.1039 23.892C19.8445 23.7407 19.5634 23.5461 19.3039 23.3731C19.2175 23.3083 19.131 23.2434 19.0445 23.2001C18.6769 22.9407 18.2661 22.6812 17.7688 22.4434C16.7958 22.0326 15.5418 21.6434 13.5958 21.6001ZM8.25529 28.2812V19.5029H12.8391V28.2812H8.25529Z" fill="#010101"/>
</mask>
<g mask="url(#mask0_1174_346)">
<path d="M13.5946 27.6333V27.5901H13.5514V27.6333H13.5946ZM14.9352 28.0442L14.9568 28.0009L14.9352 28.0442ZM16.5568 28.8442L16.5352 28.8658L16.5568 28.8442ZM16.5568 28.8442L16.5784 28.8225L16.5568 28.8442ZM16.9244 29.0604L16.9028 29.082L16.9244 29.0604ZM27.4973 28.8225L27.4757 28.8009L27.4973 28.8225ZM30.2217 27.2442L30.2433 27.2658L30.2217 27.2442ZM32.0379 25.6658L32.0595 25.6874L32.0379 25.6658ZM32.4487 24.1523H32.4919H32.4487ZM31.7136 22.9631L31.7352 22.9415L31.7136 22.9631ZM28.9892 23.0496L29.0109 23.0712L28.9892 23.0496ZM26.9784 24.5847L27 24.6063L26.9784 24.5847ZM25.6811 25.1036H25.6379V25.1469H25.6811V25.1036ZM25.0541 23.9793L25.0757 23.9577L25.0541 23.9793ZM23.5406 23.3306V23.2874V23.3306ZM20.3838 23.2225L20.3622 23.2442H20.3838V23.2225ZM19.7352 22.7901L19.7568 22.7685L19.7352 22.7901ZM19.4541 22.5955L19.4325 22.6171L19.4541 22.5955ZM18.0703 21.7955L18.0487 21.8387L18.0703 21.7955ZM13.5946 20.8442H13.5514V20.8874H13.5946V20.8442ZM13.5946 21.6009V21.5577H13.5514V21.6009H13.5946ZM13.5946 26.8766H13.5514V26.9198H13.5946V26.8766ZM15.2595 27.3523L15.2379 27.3955L15.2595 27.3523ZM16.9244 28.1739L16.946 28.1523L16.9244 28.1739ZM16.9244 28.1739L16.9028 28.1955L16.9244 28.1739ZM17.2919 28.3685L17.2703 28.3901L17.2919 28.3685ZM27.1514 28.1523L27.173 28.1739L27.1514 28.1523ZM29.7892 26.6171L29.8109 26.6387L29.7892 26.6171ZM31.4325 25.1901L31.4541 25.2117L31.4325 25.1901ZM31.7136 24.282H31.7568H31.7136ZM31.2379 23.5685L31.2163 23.5901L31.2379 23.5685ZM29.5298 23.5901L29.5514 23.6117L29.5298 23.5901ZM27.346 25.255L27.3244 25.2333L27.346 25.255ZM25.3568 25.9036V25.8604V25.9036ZM24.9244 25.1469V25.1901H24.9676L24.946 25.1252L24.9244 25.1469ZM24.5568 24.5631L24.5352 24.5847L24.5568 24.5631ZM23.3892 24.0874V24.0442V24.0874ZM20.2973 24.0009V23.9577V24.0009ZM20.1892 24.0009L20.1676 24.0225L20.1892 24.0009ZM20.1028 23.936L20.0811 23.9577L20.1028 23.936ZM19.2811 23.4171L19.3027 23.3955L19.2811 23.4171ZM19.0217 23.2225L19.0433 23.2009L19.0217 23.2225ZM17.7244 22.4658L17.746 22.4225L17.7244 22.4658ZM8.2541 19.5036V19.4604H8.21086V19.5036H8.2541ZM8.2541 28.282H8.21086V28.3252H8.2541V28.282ZM12.8379 19.5036H12.8811V19.4604H12.8379V19.5036ZM12.8379 28.282V28.3252H12.8811V28.282H12.8379ZM7.51897 19.309C7.51897 19.0063 7.7568 18.7685 8.05951 18.7685V18.7036C7.71356 18.7036 7.4541 18.9847 7.4541 19.309H7.51897ZM7.51897 28.4766V19.309H7.4541V28.4766H7.51897ZM8.05951 29.0171C7.7568 29.0171 7.51897 28.7793 7.51897 28.4766H7.4541C7.4541 28.8225 7.73518 29.082 8.05951 29.082V29.0171ZM13.0325 29.0171H8.05951V29.082H13.0325V29.0171ZM13.573 28.4766C13.573 28.7793 13.3352 29.0171 13.0325 29.0171V29.082C13.3784 29.082 13.6379 28.8009 13.6379 28.4766H13.573ZM13.573 27.6333V28.4766H13.6379V27.6333H13.573ZM13.5946 27.6766C13.9838 27.7198 14.4379 27.8712 14.9352 28.0874L14.9568 28.0225C14.4595 27.8063 14.0055 27.655 13.5946 27.6117V27.6766ZM14.9352 28.0874C15.4325 28.3036 15.973 28.5847 16.5352 28.8874L16.5784 28.8225C16.0163 28.5198 15.4757 28.2387 14.9784 28.0225L14.9352 28.0874ZM16.5352 28.8874L16.5784 28.8225L16.5352 28.8874ZM16.5352 28.8874C16.6649 28.9523 16.7946 29.0171 16.9244 29.082L16.9676 29.0171C16.8379 28.9523 16.7082 28.8874 16.5784 28.8225L16.5352 28.8874ZM16.9244 29.082C18.3298 29.8171 19.9298 30.6171 21.6379 30.6171V30.5523C19.973 30.5523 18.373 29.7739 16.9676 29.0387L16.9244 29.082ZM21.6163 30.6171C23.2811 30.6171 25.5298 29.8387 27.4973 28.8658L27.4757 28.8009C25.5082 29.7739 23.2811 30.5523 21.6163 30.5523V30.6171ZM27.519 28.8658C28.5136 28.3685 29.4649 27.8279 30.2433 27.2874L30.2 27.2225C29.4217 27.7631 28.4703 28.3036 27.4757 28.8009L27.519 28.8658ZM30.2433 27.2874C31.0217 26.7469 31.6703 26.1847 32.0811 25.6874L32.0163 25.6442C31.6271 26.1415 30.9784 26.682 30.2 27.2225L30.2433 27.2874ZM32.0595 25.6874C32.4487 25.1901 32.5784 24.6496 32.4919 24.1523L32.4271 24.1739C32.5136 24.6496 32.3838 25.1685 32.0163 25.6442L32.0595 25.6874ZM32.4919 24.1523C32.4055 23.655 32.1027 23.2442 31.7352 22.9415L31.6919 23.0063C32.0595 23.2874 32.3406 23.6982 32.4271 24.1739L32.4919 24.1523ZM31.7352 22.9415C31 22.3577 29.8109 22.1847 28.946 23.0279L28.9892 23.0712C29.8109 22.2496 30.9568 22.4225 31.6703 22.9847L31.7352 22.9415ZM28.9676 23.0279C28.319 23.6766 27.6271 24.1955 26.9568 24.5631L27 24.6279C27.6703 24.2604 28.3838 23.7415 29.0325 23.0928L28.9676 23.0279ZM26.9568 24.5631C26.4595 24.8442 26.0271 24.9955 25.6811 25.0604L25.7028 25.1252C26.0487 25.0604 26.5028 24.8874 27 24.6063L26.9568 24.5631ZM25.7244 25.082C25.6379 24.6063 25.4 24.2387 25.0757 23.9577L25.0325 24.0225C25.3568 24.3036 25.573 24.6496 25.6595 25.1036L25.7244 25.082ZM25.0757 23.9577C24.6649 23.6117 24.1028 23.3955 23.5622 23.2874L23.5406 23.3523C24.1028 23.4604 24.6217 23.655 25.0325 24.0009L25.0757 23.9577ZM23.5406 23.2874C22.4811 23.0712 21.2271 23.136 20.3838 23.1793V23.2442C21.2271 23.2009 22.4811 23.136 23.5406 23.3523V23.2874ZM20.4055 23.2009C20.2109 23.0712 19.9946 22.9414 19.7784 22.7901L19.7352 22.855C19.973 23.0063 20.1676 23.1577 20.3622 23.2874L20.4055 23.2009ZM19.7568 22.7685C19.6703 22.7036 19.5622 22.6388 19.4541 22.5739L19.4109 22.6387C19.519 22.7036 19.6055 22.7685 19.7136 22.8333L19.7568 22.7685ZM19.4757 22.5739C19.0865 22.3144 18.6325 22.0117 18.0919 21.7523L18.0703 21.8171C18.6109 22.0766 19.0649 22.3577 19.4541 22.6171L19.4757 22.5739ZM18.0703 21.7523C17.0325 21.255 15.6271 20.8442 13.5946 20.8009V20.8658C15.6271 20.909 17.0109 21.2982 18.0487 21.7955L18.0703 21.7523ZM13.573 19.309V20.8442H13.6379V19.309H13.573ZM13.0325 18.7685C13.3352 18.7685 13.573 19.0063 13.573 19.309H13.6379C13.6379 18.9631 13.3568 18.7036 13.0325 18.7036V18.7685ZM8.05951 18.7685H13.0325V18.7036H8.05951V18.7685ZM13.573 21.6009V26.855H13.6379V21.6009H13.573ZM15.2595 27.309C14.6973 27.0712 14.1568 26.8766 13.5946 26.8333V26.8982C14.1352 26.9415 14.6757 27.136 15.2379 27.3739L15.2595 27.309ZM16.9244 28.1523C16.3622 27.8496 15.8 27.5469 15.2595 27.309L15.2379 27.3739C15.7784 27.6117 16.3406 27.9144 16.9028 28.1955L16.9244 28.1523ZM16.9244 28.1523L16.8811 28.2171L16.9244 28.1523ZM17.3136 28.3469C17.1838 28.282 17.0757 28.2171 16.946 28.1523L16.9028 28.2171C17.0325 28.282 17.1406 28.3469 17.2703 28.4117L17.3136 28.3469ZM21.6163 29.7739C20.1676 29.7739 18.719 29.082 17.2919 28.3469L17.2487 28.4117C18.6541 29.1469 20.1244 29.8604 21.5946 29.8604V29.7739H21.6163ZM27.1514 28.109C25.2055 29.0604 23.1082 29.7739 21.6379 29.7739V29.8387C23.1298 29.8387 25.2487 29.1252 27.1946 28.1739L27.1514 28.109ZM29.7676 26.5955C29.0109 27.1144 28.1028 27.655 27.1514 28.1306L27.173 28.1955C28.146 27.7198 29.0541 27.1793 29.8109 26.6604L29.7676 26.5955ZM31.4109 25.1685C31.0865 25.5793 30.5244 26.0766 29.7676 26.5955L29.8109 26.6604C30.5676 26.1415 31.1514 25.6225 31.4757 25.2117L31.4109 25.1685ZM31.6703 24.3036C31.7136 24.5631 31.6703 24.8442 31.4109 25.1685L31.4757 25.2117C31.7352 24.8874 31.8 24.5631 31.7568 24.282L31.6703 24.3036ZM31.2163 23.5901C31.4541 23.7847 31.6271 24.0442 31.6703 24.3036L31.7352 24.282C31.6919 24.0009 31.519 23.7414 31.2595 23.5252L31.2163 23.5901ZM29.5514 23.6117C30.0271 23.136 30.719 23.2009 31.2163 23.5901L31.2595 23.5252C30.7406 23.1144 30.0055 23.0496 29.4865 23.5685L29.5514 23.6117ZM27.3676 25.2982C28.1028 24.8874 28.8595 24.3252 29.5514 23.6333L29.5082 23.5901C28.8163 24.282 28.0595 24.8442 27.3244 25.255L27.3676 25.2982ZM25.3568 25.9469C25.9406 25.9469 26.6541 25.6874 27.3676 25.2982L27.3244 25.2333C26.6109 25.6225 25.919 25.8604 25.3568 25.882V25.9469ZM25.3352 25.9469C25.3568 25.9469 25.3568 25.9469 25.3352 25.9469L25.3568 25.882C25.3568 25.882 25.3568 25.882 25.3352 25.882V25.9469ZM17.8109 25.9469H25.3568V25.882H17.8109V25.9469ZM17.3784 25.5144C17.3784 25.7523 17.573 25.9252 17.7892 25.9252V25.8604C17.5946 25.8604 17.4433 25.709 17.4433 25.5144H17.3784ZM17.8109 25.1036C17.573 25.1036 17.4 25.2982 17.4 25.5144H17.4649C17.4649 25.3198 17.6163 25.1685 17.8109 25.1685V25.1036ZM24.9244 25.1036H17.8109V25.1685H24.9244V25.1036ZM24.5352 24.6063C24.7082 24.7577 24.8379 24.9306 24.8811 25.1469L24.946 25.1252C24.8811 24.8874 24.7514 24.6928 24.5784 24.5415L24.5352 24.6063ZM23.3676 24.109C23.8649 24.2171 24.2541 24.3685 24.5136 24.5847L24.5568 24.5198C24.2757 24.282 23.8649 24.1306 23.3676 24.0225V24.109ZM20.319 24.0225C21.1838 23.9793 22.3946 23.9144 23.3892 24.109L23.4109 24.0442C22.4163 23.8496 21.1838 23.9144 20.319 23.9577V24.0225ZM20.1892 24.0225H20.2973V23.9577H20.1892V24.0225ZM20.0811 23.9793L20.1892 24.0442L20.2109 23.9577L20.1028 23.8928L20.0811 23.9793ZM19.2595 23.4387C19.5406 23.6333 19.8 23.8063 20.0811 23.9577L20.1244 23.8928C19.8649 23.7414 19.5838 23.5469 19.3244 23.3739L19.2595 23.4387ZM19 23.2658C19.0865 23.3306 19.173 23.3955 19.2595 23.4387L19.3027 23.3739C19.2163 23.309 19.1298 23.2442 19.0433 23.2009L19 23.2658ZM17.7244 22.509C18.2217 22.7469 18.6325 23.0063 19 23.2658L19.0433 23.2009C18.6757 22.9415 18.2649 22.682 17.746 22.4442L17.7244 22.509ZM13.5946 21.6442C15.519 21.6874 16.773 22.055 17.7027 22.509L17.7244 22.4442C16.7946 21.9901 15.519 21.6225 13.573 21.5793L13.5946 21.6442ZM8.21086 19.5036V28.282H8.27572V19.5036H8.21086ZM12.8379 19.4604H8.2541V19.5252H12.8379V19.4604ZM12.8811 28.282V19.5036H12.8163V28.282H12.8811ZM8.2541 28.3252H12.8379V28.2604H8.2541V28.3252Z" fill="#0E4C19"/>
</g>
</svg>
