<svg width="200" height="56" viewBox="0 0 200 56" fill="none" xmlns="http://www.w3.org/2000/svg">
<path d="M75.0725 28.7179C75.4598 29.3734 75.6683 30.1778 75.6683 31.1311V32.7399C75.6683 34.1699 75.2512 35.3318 74.3872 36.1958C73.5233 37.0598 72.3912 37.4768 70.9314 37.4768H65.8965V17.5459H70.6632C72.0933 17.5459 73.2551 17.963 74.1191 18.827C74.9831 19.6909 75.4002 20.8528 75.4002 22.2828V23.3256C75.4002 25.1131 74.715 26.3942 73.3743 27.139C74.1191 27.5561 74.6852 28.0625 75.0725 28.7179ZM68.9055 20.4357V25.8281H70.2461C70.9612 25.8281 71.4974 25.6494 71.8549 25.2919C72.2124 24.9343 72.3912 24.3981 72.3912 23.6831V22.2828C72.3912 21.687 72.2422 21.2401 71.9145 20.9124C71.5868 20.5847 71.1399 20.4357 70.5441 20.4357H68.9055ZM72.6295 30.8332C72.6295 30.1182 72.4508 29.5819 72.0932 29.2244C71.7357 28.8669 71.1995 28.6882 70.4845 28.6882H68.8757V34.6764H70.7526C71.3484 34.6764 71.7953 34.5274 72.123 34.1997C72.4508 33.872 72.5997 33.4251 72.5997 32.8293V30.8332H72.6295Z" fill="white"/>
<path d="M78.7825 36.4908C77.9186 35.6268 77.4717 34.4947 77.4717 33.1242V17.6025H80.4807V33.1242C80.4807 33.6903 80.6297 34.1372 80.9574 34.4649C81.2553 34.7926 81.6724 34.9416 82.1788 34.9416C82.6853 34.9416 83.0726 34.7926 83.4003 34.4649C83.6982 34.1372 83.877 33.6903 83.877 33.1242V17.6025H86.8264V33.1242C86.8264 34.4947 86.4093 35.6268 85.5453 36.4908C84.6814 37.3547 83.5791 37.7718 82.1788 37.7718C80.7786 37.7718 79.6465 37.3547 78.7825 36.4908Z" fill="white"/>
<path d="M88.918 17.5742H97.4683V20.4045H91.927V25.9458H96.3362V28.7761H91.927V34.6153H97.4683V37.4754H88.918V17.5742Z" fill="white"/>
<path d="M99.2944 17.5742H102.631L106.474 30.9509V17.5742H109.424V37.5052H106.236L102.244 24.7541V37.5052H99.2944V17.5742Z" fill="white"/>
<path d="M112.742 36.4635C111.848 35.5697 111.401 34.4078 111.401 32.9778V22.1037C111.401 20.6736 111.848 19.5117 112.742 18.618C113.635 17.7242 114.797 17.3071 116.227 17.3071C117.657 17.3071 118.849 17.754 119.713 18.618C120.607 19.5117 121.054 20.6736 121.054 22.1037V32.9778C121.054 34.4078 120.607 35.5697 119.713 36.4635C118.819 37.3572 117.657 37.7743 116.227 37.7743C114.797 37.7743 113.635 37.3572 112.742 36.4635ZM117.568 34.4376C117.896 34.1099 118.045 33.6034 118.045 32.9778V22.1037C118.045 21.478 117.896 21.0014 117.568 20.6439C117.24 20.3161 116.793 20.1374 116.227 20.1374C115.661 20.1374 115.214 20.3161 114.887 20.6439C114.559 20.9716 114.41 21.478 114.41 22.1037V32.9778C114.41 33.6034 114.559 34.0801 114.887 34.4376C115.214 34.7653 115.661 34.9441 116.227 34.9441C116.793 34.9441 117.27 34.7653 117.568 34.4376Z" fill="white"/>
<path d="M128.682 17.5786H137.113V20.4089H131.72V26.2481H135.981V29.1082H131.72V37.5096H128.711V17.5786H128.682Z" fill="white"/>
<path d="M138.975 17.5786H141.984V37.5096H138.975V17.5786Z" fill="white"/>
<path d="M144.406 17.5786H147.742L151.586 30.9553V17.5786H154.535V37.5096H151.347L147.355 24.7585V37.5096H144.406V17.5786Z" fill="white"/>
<path d="M162.817 33.1003H159.57L158.914 37.5096H155.905L159.212 17.5786H163.264L166.571 37.5096H163.502L162.817 33.1003ZM162.43 30.1807L161.208 21.8389L159.987 30.1807H162.43Z" fill="white"/>
<path d="M167.981 17.5786H171.318L175.161 30.9553V17.5786H178.11V37.5096H174.923L170.93 24.7585V37.5096H167.981V17.5786Z" fill="white"/>
<path d="M181.512 36.4991C180.648 35.6352 180.201 34.5031 180.201 33.073V22.0202C180.201 20.6199 180.648 19.4878 181.512 18.5941C182.376 17.7301 183.538 17.2832 184.938 17.2832C186.338 17.2832 187.47 17.7301 188.364 18.5941C189.228 19.458 189.675 20.5901 189.675 22.0202V24.3439H186.726V22.0202C186.726 21.4541 186.577 21.0072 186.249 20.6497C185.921 20.322 185.504 20.1432 184.998 20.1432C184.491 20.1432 184.074 20.322 183.746 20.6497C183.419 20.9774 183.27 21.4541 183.27 22.0202V33.073C183.27 33.6391 183.419 34.086 183.746 34.4435C184.074 34.7712 184.491 34.9499 184.998 34.9499C185.504 34.9499 185.921 34.7712 186.249 34.4435C186.577 34.1158 186.726 33.6391 186.726 33.073V30.2428H189.675V33.073C189.675 34.4733 189.228 35.6054 188.364 36.4991C187.5 37.3631 186.368 37.81 184.938 37.81C183.508 37.7802 182.376 37.3631 181.512 36.4991Z" fill="white"/>
<path d="M191.45 17.5786H200.001V20.4089H194.459V25.9502H198.868V28.7805H194.459V34.6197H200.001V37.4798H191.45V17.5786Z" fill="white"/>
<path d="M27.5577 55.1155C42.7774 55.1155 55.1155 42.7774 55.1155 27.5577C55.1155 12.338 42.7774 0 27.5577 0C12.338 0 0 12.338 0 27.5577C0 42.7774 12.338 55.1155 27.5577 55.1155Z" fill="white"/>
<path d="M25.2002 18.7075C24.0979 18.7075 23.2041 19.6013 23.2041 20.7036C23.2041 21.8059 24.0979 22.6997 25.2002 22.6997H29.669C30.7713 22.6997 31.6651 21.8059 31.6651 20.7036C31.6651 19.6013 30.7713 18.7075 29.669 18.7075H25.2002ZM24.2766 20.7036C24.2766 20.1971 24.6937 19.8098 25.1704 19.8098H29.6392C30.1457 19.8098 30.533 20.2269 30.533 20.7036C30.533 21.2101 30.1159 21.5974 29.6392 21.5974H25.1704C24.6937 21.5974 24.2766 21.1803 24.2766 20.7036Z" fill="#0E4C19"/>
<path d="M32.5654 24.4893C31.4631 24.4893 30.5693 25.383 30.5693 26.4853C30.5693 27.5876 31.4631 28.4814 32.5654 28.4814H37.0342C38.1365 28.4814 39.0303 27.5876 39.0303 26.4853C39.0303 25.383 38.1365 24.4893 37.0342 24.4893H32.5654ZM31.6716 26.4853C31.6716 25.9789 32.0887 25.5916 32.5654 25.5916H37.0342C37.5407 25.5916 37.928 26.0087 37.928 26.4853C37.928 26.9918 37.5109 27.3791 37.0342 27.3791H32.5654C32.0589 27.3791 31.6716 26.9918 31.6716 26.4853Z" fill="#0E4C19"/>
<path d="M32.5654 12.9009C31.4631 12.9009 30.5693 13.7946 30.5693 14.897C30.5693 15.9993 31.4631 16.893 32.5654 16.893H37.0342C38.1365 16.893 39.0303 15.9993 39.0303 14.897C39.0303 13.7946 38.1365 12.9009 37.0342 12.9009H32.5654ZM31.6716 14.897C31.6716 14.3905 32.0887 14.0032 32.5654 14.0032H37.0342C37.5407 14.0032 37.928 14.4203 37.928 14.897C37.928 15.3736 37.5109 15.7907 37.0342 15.7907H32.5654C32.0589 15.8205 31.6716 15.4034 31.6716 14.897Z" fill="#0E4C19"/>
<path fill-rule="evenodd" clip-rule="evenodd" d="M11.1139 25.8301C10.6671 25.8301 10.3394 26.1876 10.3394 26.6047V39.2365C10.3394 39.6834 10.6969 40.0111 11.1139 40.0111H17.9661C18.413 40.0111 18.7407 39.6536 18.7407 39.2365V38.0746C19.277 38.1342 19.9026 38.3428 20.5879 38.6407C21.2731 38.9386 22.0179 39.3259 22.7925 39.743C22.9712 39.8324 23.15 39.9218 23.3287 40.0111C25.2652 41.0241 27.4698 42.0966 29.7936 42.0966C32.0876 42.0966 35.1562 41.0241 37.8971 39.6834C39.2675 38.9982 40.5486 38.2534 41.6509 37.5086C42.7234 36.7638 43.6172 36.019 44.1534 35.3338C44.6897 34.6783 44.8387 33.9335 44.7195 33.2483C44.6003 32.5929 44.213 31.9971 43.7066 31.6098C42.7234 30.8054 41.1146 30.567 39.9527 31.7289C39.059 32.6227 38.0758 33.3377 37.1821 33.8442C36.4969 34.2315 35.901 34.44 35.4243 34.5592C35.3052 33.9335 34.9775 33.4271 34.5306 33.0398C33.9645 32.5631 33.2197 32.295 32.4451 32.146C30.9853 31.8481 29.2574 31.9375 28.0955 31.997C27.8273 31.8183 27.5294 31.6395 27.2315 31.431C27.1123 31.3416 26.9634 31.2522 26.8144 31.1629C26.2781 30.8054 25.6525 30.4181 24.9077 30.0308C23.4777 29.3455 21.571 28.8093 18.7705 28.7497V26.6345C18.7705 26.1876 18.413 25.8599 17.9959 25.8599H11.1139V25.8301ZM18.7407 29.7626V37.0021C19.4855 37.0617 20.2601 37.3298 21.0049 37.6576C21.7497 37.9853 22.5243 38.4024 23.2989 38.8195C23.4777 38.9088 23.6267 38.9982 23.8054 39.0876C25.7419 40.1005 27.738 41.0539 29.7638 41.0539C31.8195 41.0539 34.7093 40.0707 37.3906 38.7599C38.7313 38.1044 39.9825 37.3596 40.9955 36.6446C42.0382 35.9296 42.8426 35.2444 43.2895 34.6783C43.647 34.2315 43.7066 33.8144 43.647 33.4569C43.5874 33.0696 43.349 32.7121 43.0213 32.4439C42.3361 31.8779 41.353 31.7885 40.6678 32.4737C39.7144 33.4271 38.6419 34.2017 37.6588 34.7677C36.6756 35.304 35.7223 35.6615 34.9179 35.6615C34.9179 35.6615 34.9179 35.6615 34.8881 35.6615H24.5502C24.2523 35.6615 24.014 35.4231 24.014 35.1252C24.014 34.8273 24.2523 34.589 24.5502 34.589H34.3518C34.2624 34.2613 34.0837 34.0229 33.8454 33.8144C33.4581 33.4867 32.9218 33.2781 32.2366 33.1292C30.8661 32.861 29.1978 32.9504 28.0061 33.01H27.8571L27.7082 32.9206C27.3507 32.7121 26.9634 32.4439 26.6059 32.2056C26.4867 32.1162 26.3675 32.0268 26.2484 31.9673C25.7419 31.6098 25.1758 31.2522 24.4906 30.9245C23.15 30.3585 21.422 29.8222 18.7407 29.7626ZM11.3821 38.9684V26.8728H17.698V38.9684H11.3821Z" fill="#0E4C19"/>
<mask id="mask0_1502_26" style="mask-type:alpha" maskUnits="userSpaceOnUse" x="10" y="25" width="35" height="18">
<path d="M44.9549 25.6475H10.1577V42.2119H44.9549V25.6475Z" fill="white"/>
<path fill-rule="evenodd" clip-rule="evenodd" d="M11.1066 25.8296C10.6597 25.8296 10.332 26.1871 10.332 26.6042V39.2361C10.332 39.6829 10.6895 40.0106 11.1066 40.0106H17.9588C18.4057 40.0106 18.7334 39.6531 18.7334 39.2361V38.0742C19.2697 38.1337 19.8953 38.3423 20.5805 38.6402C21.2657 38.9381 22.0106 39.3254 22.7851 39.7425C22.9639 39.8319 23.1427 39.9213 23.3214 40.0106C25.2579 41.0236 27.4625 42.0961 29.7863 42.0961C32.0803 42.0961 35.1489 41.0236 37.8898 39.6829C39.2602 38.9977 40.5413 38.2529 41.6436 37.5081C42.7161 36.7633 43.6099 36.0185 44.1461 35.3333C44.6824 34.6779 44.8313 33.9331 44.7122 33.2478C44.593 32.5924 44.2057 31.9966 43.6992 31.6093C42.7161 30.8049 41.1073 30.5665 39.9454 31.7284C39.0517 32.6222 38.0685 33.3372 37.1748 33.8437C36.4895 34.231 35.8937 34.4395 35.417 34.5587C35.2978 33.9331 34.9701 33.4266 34.5232 33.0393C33.9572 32.5626 33.2124 32.2945 32.4378 32.1455C30.978 31.8476 29.25 31.937 28.0881 31.9966C27.82 31.8178 27.5221 31.6391 27.2242 31.4305C27.105 31.3411 26.956 31.2518 26.8071 31.1624C26.2708 30.8049 25.6452 30.4176 24.9004 30.0303C23.4704 29.3451 21.5637 28.8088 18.7632 28.7492V26.634C18.7632 26.1871 18.4057 25.8594 17.9886 25.8594H11.1066V25.8296ZM18.7334 29.7622V37.0016C19.4782 37.0612 20.2528 37.3294 20.9976 37.6571C21.7424 37.9848 22.517 38.4019 23.2916 38.819C23.4704 38.9083 23.6193 38.9977 23.7981 39.0871C25.7346 40.1 27.7306 41.0534 29.7565 41.0534C31.8122 41.0534 34.702 40.0702 37.3833 38.7594C38.7239 38.104 39.9752 37.3591 40.9881 36.6441C42.0309 35.9291 42.8353 35.2439 43.2821 34.6779C43.6396 34.231 43.6992 33.8139 43.6396 33.4564C43.5801 33.0691 43.3417 32.7116 43.014 32.4434C42.3288 31.8774 41.3457 31.788 40.6604 32.4732C39.7071 33.4266 38.6346 34.2012 37.6514 34.7672C36.6683 35.3035 35.7149 35.661 34.9106 35.661C34.9106 35.661 34.9105 35.661 34.8808 35.661H24.5429C24.245 35.661 24.0066 35.4227 24.0066 35.1247C24.0066 34.8268 24.245 34.5885 24.5429 34.5885H34.3445C34.2551 34.2608 34.0764 34.0224 33.838 33.8139C33.4507 33.4862 32.9145 33.2776 32.2293 33.1287C30.8588 32.8605 29.1905 32.9499 27.9988 33.0095H27.8498L27.7009 32.9201C27.3433 32.7116 26.956 32.4434 26.5985 32.2051C26.4794 32.1157 26.3602 32.0264 26.241 31.9668C25.7346 31.6093 25.1685 31.2518 24.4833 30.924C23.1427 30.358 21.4147 29.8217 18.7334 29.7622ZM11.3748 38.9679V26.8723H17.6907V38.9679H11.3748Z" fill="#010101"/>
</mask>
<g mask="url(#mask0_1502_26)">
<path d="M18.732 38.0756V38.0161H18.6724V38.0756H18.732ZM20.5791 38.6417L20.6089 38.5821L20.5791 38.6417ZM22.8135 39.744L22.7837 39.7738L22.8135 39.744ZM22.8135 39.744L22.8433 39.7142L22.8135 39.744ZM23.32 40.0419L23.2902 40.0717L23.32 40.0419ZM37.8883 39.7142L37.8585 39.6844L37.8883 39.7142ZM41.6421 37.5394L41.6719 37.5692L41.6421 37.5394ZM44.1447 35.3646L44.1745 35.3943L44.1447 35.3646ZM44.7107 33.2791H44.7703H44.7107ZM43.6978 31.6405L43.7276 31.6107L43.6978 31.6405ZM39.944 31.7597L39.9738 31.7895L39.944 31.7597ZM37.1733 33.875L37.2031 33.9047L37.1733 33.875ZM35.3858 34.59H35.3262V34.6495H35.3858V34.59ZM34.5218 33.0408L34.5516 33.011L34.5218 33.0408ZM32.4364 32.147V32.0874V32.147ZM28.0867 31.998L28.0569 32.0278H28.0867V31.998ZM27.1929 31.4022L27.2227 31.3724L27.1929 31.4022ZM26.8056 31.1341L26.7758 31.1639L26.8056 31.1341ZM24.8989 30.0318L24.8691 30.0913L24.8989 30.0318ZM18.732 28.7209H18.6724V28.7805H18.732V28.7209ZM18.732 29.7636V29.704H18.6724V29.7636H18.732ZM18.732 37.0329H18.6724V37.0925H18.732V37.0329ZM21.026 37.6883L20.9962 37.7479L21.026 37.6883ZM23.32 38.8204L23.3497 38.7907L23.32 38.8204ZM23.32 38.8204L23.2902 38.8502L23.32 38.8204ZM23.8264 39.0886L23.7966 39.1184L23.8264 39.0886ZM37.4116 38.7907L37.4414 38.8204L37.4116 38.7907ZM41.0463 36.6754L41.0761 36.7052L41.0463 36.6754ZM43.3105 34.7091L43.3403 34.7389L43.3105 34.7091ZM43.6978 33.4579H43.7574H43.6978ZM43.0424 32.4747L43.0126 32.5045L43.0424 32.4747ZM40.6888 32.5045L40.7186 32.5343L40.6888 32.5045ZM37.6798 34.7985L37.65 34.7687L37.6798 34.7985ZM34.9389 35.6923V35.6327V35.6923ZM34.343 34.6495V34.7091H34.4026L34.3728 34.6198L34.343 34.6495ZM33.8366 33.8452L33.8068 33.875L33.8366 33.8452ZM32.2278 33.1897V33.1301V33.1897ZM27.9675 33.0706V33.011V33.0706ZM27.8186 33.0706L27.7888 33.1004L27.8186 33.0706ZM27.6994 32.9812L27.6696 33.011L27.6994 32.9812ZM26.5673 32.2662L26.5971 32.2364L26.5673 32.2662ZM26.2098 31.998L26.2396 31.9682L26.2098 31.998ZM24.4223 30.9553L24.4521 30.8957L24.4223 30.9553ZM11.3733 26.8738V26.8142H11.3137V26.8738H11.3733ZM11.3733 38.9694H11.3137V39.029H11.3733V38.9694ZM17.6892 26.8738H17.7488V26.8142H17.6892V26.8738ZM17.6892 38.9694V39.029H17.7488V38.9694H17.6892ZM10.3604 26.6057C10.3604 26.1886 10.6881 25.8609 11.1052 25.8609V25.7715C10.6285 25.7715 10.271 26.1588 10.271 26.6057H10.3604ZM10.3604 39.2375V26.6057H10.271V39.2375H10.3604ZM11.1052 39.9823C10.6881 39.9823 10.3604 39.6546 10.3604 39.2375H10.271C10.271 39.7142 10.6583 40.0717 11.1052 40.0717V39.9823ZM17.9574 39.9823H11.1052V40.0717H17.9574V39.9823ZM18.7022 39.2375C18.7022 39.6546 18.3745 39.9823 17.9574 39.9823V40.0717C18.434 40.0717 18.7916 39.6844 18.7916 39.2375H18.7022ZM18.7022 38.0756V39.2375H18.7916V38.0756H18.7022ZM18.732 38.1352C19.2682 38.1948 19.8939 38.4034 20.5791 38.7013L20.6089 38.6119C19.9237 38.314 19.298 38.1054 18.732 38.0458V38.1352ZM20.5791 38.7013C21.2643 38.9992 22.0091 39.3865 22.7837 39.8036L22.8433 39.7142C22.0687 39.2971 21.3239 38.9098 20.6387 38.6119L20.5791 38.7013ZM22.7837 39.8036L22.8433 39.7142L22.7837 39.8036ZM22.7837 39.8036C22.9625 39.893 23.1412 39.9823 23.32 40.0717L23.3795 39.9823C23.2008 39.893 23.022 39.8036 22.8433 39.7142L22.7837 39.8036ZM23.32 40.0717C25.2564 41.0846 27.4611 42.187 29.8146 42.187V42.0976C27.5206 42.0976 25.316 41.0251 23.3795 40.0121L23.32 40.0717ZM29.7848 42.187C32.0788 42.187 35.1772 41.1144 37.8883 39.7738L37.8585 39.6844C35.1474 41.0251 32.0788 42.0976 29.7848 42.0976V42.187ZM37.9181 39.7738C39.2885 39.0886 40.5994 38.3438 41.6719 37.599L41.6123 37.5096C40.5398 38.2544 39.229 38.9992 37.8585 39.6844L37.9181 39.7738ZM41.6719 37.599C42.7444 36.8542 43.6382 36.0796 44.2042 35.3943L44.1149 35.3348C43.5786 36.02 42.6848 36.7648 41.6123 37.5096L41.6719 37.599ZM44.1745 35.3943C44.7107 34.7091 44.8895 33.9643 44.7703 33.2791L44.6809 33.3089C44.8001 33.9643 44.6213 34.6793 44.1149 35.3348L44.1745 35.3943ZM44.7703 33.2791C44.6511 32.5939 44.234 32.0278 43.7276 31.6107L43.668 31.7001C44.1745 32.0874 44.5617 32.6535 44.6809 33.3089L44.7703 33.2791ZM43.7276 31.6107C42.7146 30.8064 41.0761 30.568 39.8844 31.7299L39.944 31.7895C41.0761 30.6574 42.6551 30.8957 43.6382 31.6703L43.7276 31.6107ZM39.9142 31.7299C39.0204 32.6237 38.0671 33.3387 37.1435 33.8452L37.2031 33.9345C38.1267 33.4281 39.1098 32.7131 40.0036 31.8193L39.9142 31.7299ZM37.1435 33.8452C36.4583 34.2325 35.8624 34.441 35.3858 34.5304L35.4156 34.6198C35.8922 34.5304 36.5179 34.292 37.2031 33.9047L37.1435 33.8452ZM35.4454 34.5602C35.3262 33.9047 34.9985 33.3983 34.5516 33.011L34.492 33.1004C34.9389 33.4877 35.2368 33.9643 35.356 34.59L35.4454 34.5602ZM34.5516 33.011C33.9855 32.5343 33.2109 32.2364 32.4661 32.0874L32.4364 32.1768C33.2109 32.3258 33.926 32.5939 34.492 33.0706L34.5516 33.011ZM32.4364 32.0874C30.9765 31.7895 29.2486 31.8789 28.0867 31.9385V32.0278C29.2486 31.9683 30.9765 31.8789 32.4364 32.1768V32.0874ZM28.1165 31.9682C27.8484 31.7895 27.5504 31.6107 27.2525 31.4022L27.1929 31.4916C27.5206 31.7001 27.7888 31.9087 28.0569 32.0874L28.1165 31.9682ZM27.2227 31.3724C27.1036 31.283 26.9546 31.1937 26.8056 31.1043L26.7461 31.1937C26.895 31.283 27.0142 31.3724 27.1631 31.4618L27.2227 31.3724ZM26.8354 31.1043C26.2992 30.7468 25.6735 30.3297 24.9287 29.9722L24.8989 30.0616C25.6437 30.4191 26.2694 30.8064 26.8056 31.1639L26.8354 31.1043ZM24.8989 29.9722C23.4689 29.287 21.5324 28.7209 18.732 28.6613V28.7507C21.5324 28.8103 23.4391 29.3465 24.8691 30.0318L24.8989 29.9722ZM18.7022 26.6057V28.7209H18.7916V26.6057H18.7022ZM17.9574 25.8609C18.3745 25.8609 18.7022 26.1886 18.7022 26.6057H18.7916C18.7916 26.129 18.4043 25.7715 17.9574 25.7715V25.8609ZM11.1052 25.8609H17.9574V25.7715H11.1052V25.8609ZM18.7022 29.7636V37.0031H18.7916V29.7636H18.7022ZM21.026 37.6288C20.2514 37.301 19.5066 37.0329 18.732 36.9733V37.0627C19.4768 37.1223 20.2216 37.3904 20.9962 37.7181L21.026 37.6288ZM23.32 38.7907C22.5454 38.3736 21.7708 37.9565 21.026 37.6288L20.9962 37.7181C21.741 38.0458 22.5156 38.4629 23.2902 38.8502L23.32 38.7907ZM23.32 38.7907L23.2604 38.88L23.32 38.7907ZM23.8562 39.0588C23.6775 38.9694 23.5285 38.88 23.3497 38.7907L23.2902 38.88C23.4689 38.9694 23.6179 39.0588 23.7966 39.1482L23.8562 39.0588ZM29.7848 41.0251C27.7888 41.0251 25.7927 40.0717 23.8264 39.0588L23.7668 39.1482C25.7033 40.1611 27.7292 41.1442 29.7551 41.1442V41.0251H29.7848ZM37.4116 38.7311C34.7303 40.0419 31.8405 41.0251 29.8146 41.0251V41.1144C31.8703 41.1144 34.7899 40.1313 37.4712 38.8204L37.4116 38.7311ZM41.0165 36.6456C39.9738 37.3606 38.7225 38.1054 37.4116 38.7609L37.4414 38.8502C38.7821 38.1948 40.0333 37.45 41.0761 36.735L41.0165 36.6456ZM43.2807 34.6793C42.8338 35.2454 42.0592 35.9306 41.0165 36.6456L41.0761 36.735C42.1188 36.02 42.9232 35.305 43.3701 34.7389L43.2807 34.6793ZM43.6382 33.4876C43.6978 33.8452 43.6382 34.2325 43.2807 34.6793L43.3701 34.7389C43.7276 34.292 43.8169 33.8452 43.7574 33.4579L43.6382 33.4876ZM43.0126 32.5045C43.3403 32.7726 43.5786 33.1301 43.6382 33.4876L43.7276 33.4579C43.668 33.0706 43.4296 32.7131 43.0721 32.4151L43.0126 32.5045ZM40.7186 32.5343C41.374 31.8789 42.3273 31.9683 43.0126 32.5045L43.0721 32.4151C42.3571 31.8491 41.3442 31.7597 40.6292 32.4747L40.7186 32.5343ZM37.7096 34.8581C38.7225 34.292 39.7652 33.5174 40.7186 32.5641L40.659 32.5045C39.7056 33.4579 38.6629 34.2325 37.65 34.7985L37.7096 34.8581ZM34.9389 35.7519C35.7433 35.7519 36.7264 35.3943 37.7096 34.8581L37.65 34.7687C36.6668 35.305 35.7135 35.6327 34.9389 35.6625V35.7519ZM34.9091 35.7519C34.9389 35.7519 34.9389 35.7519 34.9091 35.7519L34.9389 35.6625C34.9389 35.6625 34.9389 35.6625 34.9091 35.6625V35.7519ZM24.5414 35.7519H34.9389V35.6625H24.5414V35.7519ZM23.9456 35.156C23.9456 35.4837 24.2137 35.7221 24.5116 35.7221V35.6327C24.2435 35.6327 24.035 35.4241 24.035 35.156H23.9456ZM24.5414 34.59C24.2137 34.59 23.9754 34.8581 23.9754 35.156H24.0648C24.0648 34.8879 24.2733 34.6793 24.5414 34.6793V34.59ZM34.343 34.59H24.5414V34.6793H34.343V34.59ZM33.8068 33.9047C34.0451 34.1133 34.2239 34.3516 34.2835 34.6495L34.3728 34.6198C34.2835 34.292 34.1047 34.0239 33.8664 33.8154L33.8068 33.9047ZM32.198 33.2195C32.8832 33.3685 33.4195 33.577 33.777 33.875L33.8366 33.7856C33.4493 33.4579 32.8832 33.2493 32.198 33.1004V33.2195ZM27.9973 33.1004C29.189 33.0408 30.8574 32.9514 32.2278 33.2195L32.2576 33.1301C30.8872 32.862 29.189 32.9514 27.9973 33.011V33.1004ZM27.8186 33.1004H27.9675V33.011H27.8186V33.1004ZM27.6696 33.0408L27.8186 33.1301L27.8484 33.011L27.6994 32.9216L27.6696 33.0408ZM26.5375 32.296C26.9248 32.5641 27.2823 32.8024 27.6696 33.011L27.7292 32.9216C27.3717 32.7131 26.9844 32.4449 26.6269 32.2066L26.5375 32.296ZM26.18 32.0576C26.2992 32.147 26.4183 32.2364 26.5375 32.296L26.5971 32.2066C26.4779 32.1172 26.3588 32.0278 26.2396 31.9682L26.18 32.0576ZM24.4223 31.0149C25.1075 31.3426 25.6735 31.7001 26.18 32.0576L26.2396 31.9682C25.7331 31.6107 25.1671 31.2532 24.4521 30.9255L24.4223 31.0149ZM18.732 29.8232C21.3835 29.8828 23.1114 30.3893 24.3925 31.0149L24.4223 30.9255C23.1412 30.2999 21.3835 29.7934 18.7022 29.7338L18.732 29.8232ZM11.3137 26.8738V38.9694H11.4031V26.8738H11.3137ZM17.6892 26.8142H11.3733V26.9036H17.6892V26.8142ZM17.7488 38.9694V26.8738H17.6594V38.9694H17.7488ZM11.3733 39.029H17.6892V38.9396H11.3733V39.029Z" fill="#0E4C19"/>
</g>
</svg>
