<svg width="90" height="90" viewBox="0 0 90 90" fill="none" xmlns="http://www.w3.org/2000/svg">
<path fill-rule="evenodd" clip-rule="evenodd" d="M0 10.9259V21.8517L10.8625 21.79L21.7249 21.7282L21.7866 10.8641L21.8484 0H10.9242H0V10.9259ZM31.1034 1.54354V3.08707H28.0168H24.9302V4.63061V6.17414H26.4735H28.0168V7.71768V9.26121H29.5601H31.1034V10.8047V12.3483H29.5601H28.0168V13.8918V15.4354H29.5601H31.1034V13.8918V12.3483H32.6467H34.19V10.8047V9.26121H37.2766H40.3632V10.8047V12.3483H38.8199H37.2766V13.8918V15.4354H35.7333H34.19V16.9675V18.4999L35.674 18.5704L37.1579 18.6412L37.2241 21.7876L37.2904 24.934H38.8268H40.3632V26.4776V28.0211H37.2766H34.19V29.5646V31.1082H32.6467H31.1034V28.0325V24.9566L32.5874 24.8861L34.0713 24.8153V21.7282V18.6412L32.5874 18.5704L31.1034 18.4999V21.7168V24.934H29.5601H28.0168V26.4776V28.0211H26.4735H24.9302V29.5715V31.122L21.7843 31.0557L18.6383 30.9894L18.5678 29.5122L18.4973 28.0351L21.6544 27.9686L24.8115 27.9024L24.882 26.4294L24.9523 24.9561L26.4253 24.8858L27.8981 24.8153V20.1847V15.5541L26.4142 15.4833L24.9302 15.4128V20.1733V24.934H18.6269H12.3238L12.3944 26.4182L12.4651 27.9024L13.9419 27.9729L15.419 28.0434L15.4852 31.06L15.5517 34.0765L20.241 34.1409L24.9302 34.2052V35.7438V37.2823H21.7135H18.497L18.5676 38.7665L18.6383 40.2507L21.7843 40.3169L24.9302 40.3832V41.9198V43.4565H26.4735H28.0168V38.8259V34.1953H26.4735H24.9302V32.6517V31.1082H28.0168H31.1034V32.6517V34.1953H34.19H37.2766V32.6517V31.1082H38.8199H40.3632V32.6517V34.1953H41.9065H43.4498V31.1082V28.0211H46.5364H49.623V24.934V21.847H51.1663H52.7096V23.3905V24.934H54.2529H55.7962V26.4776V28.0211H54.2529H52.7096V29.5646V31.1082H51.1663H49.623V32.6517V34.1953H54.2529H58.8828V32.6517V31.1082H61.9694H65.056V34.1953V37.2823H63.5127H61.9694V38.8259V40.3694H63.5127H65.056V38.8259V37.2823H66.5993H68.1426V34.1953V31.1082H69.8046H71.4666V35.7388V40.3694H69.8046H68.1426V41.9129V43.4565H66.5993H65.056V45V46.5435H66.5993H68.1426V48.0871V49.6306H66.5993H65.056V52.7108V55.791L68.202 55.8572L71.3479 55.9235L71.4144 58.9472L71.4809 61.9711L65.2412 62.0342L59.0015 62.0976L58.9372 66.7876L58.8728 71.4776H55.7798H52.6871L52.7576 72.9617L52.8283 74.4459L54.3123 74.5167L55.7962 74.5872V76.1196V77.6517H54.2529H52.7096V79.1953V80.7388H51.1663H49.623V77.6517V74.5646H48.0797H46.5364V73.0211V71.4776H43.4498H40.3632V69.8153V68.153H41.9065H43.4498V66.6095V65.066H48.0797H52.7096V66.6095V68.153H54.2529H55.7962V66.6095V65.066H54.2529H52.7096V63.5224V61.9789H48.0797H43.4498V63.5224V65.066H38.8199H34.19V63.5224V61.9789H35.7333H37.2766V58.8918V55.8047H34.19H31.1034V54.2612V52.7177H29.5601H28.0168V51.1741V49.6306H26.4735H24.9302V51.1741V52.7177H23.3869H21.8436V51.1741V49.6306H18.6383H15.433V48.0871V46.5435H18.6383H21.8436V45V43.4565H20.1816H18.5196V41.9129V40.3694H16.9763H15.433V38.8259V37.2823H13.8897H12.3464V32.6517V28.0211H9.2598H6.1732V29.5646V31.1082H7.7165H9.2598V32.6517V34.1953H6.1732H3.0866V31.1082V28.0211H1.5433H0V37.2823V46.5435H1.5433H3.0866V45V43.4565H4.6299H6.1732V46.5435V49.6306H3.0866H0V52.7177V55.8047H6.1732H12.3464V52.7177V49.6306H13.8897H15.433V51.1741V52.7177H18.6383H21.8436V54.2612V55.8047H23.3869H24.9302V54.2612V52.7177H26.4735H28.0168V55.8047V58.8918H31.1034H34.19V60.4354V61.9789H32.6467H31.1034V65.066V68.153H32.6576H34.2116L34.1416 69.7559L34.0713 71.3588L32.5874 71.4296L31.1034 71.5001V73.0325V74.5646H37.2766H43.4498V76.1082V77.6517H41.9065H40.3632V79.1953V80.7388H41.9065H43.4498V79.1953V77.6517H44.9931H46.5364V79.1953V80.7388H48.0797H49.623V82.2823V83.8259H48.0797H46.5364V85.3694V86.9129H44.9931H43.4498V88.4565V90H46.5364H49.623V88.4565V86.9129H51.1663H52.7096V88.4565V90H54.2529H55.7962V88.4565V86.9129H58.8828H61.9694V88.4565V90H63.5127H65.056V88.4565V86.9129H66.5879H68.12L68.1906 88.3971L68.2613 89.8813H69.8046H71.3479L71.4187 88.3971L71.4892 86.9129H73.0213H74.5532V88.4565V90H80.7264H86.8996V88.4565V86.9129H88.4429H89.9862V83.8259V80.7388H88.4429H86.8996V79.1953V77.6517H88.4429H89.9862V76.1082V74.5646H88.4429H86.8996V73.0325V71.5001L88.3836 71.4296L89.8675 71.3588L89.9338 68.2124L90 65.066H88.4498H86.8996V61.9789V58.8918H88.4429H89.9862V43.4565V28.0211H88.4429H86.8996V26.4776V24.934H85.3563H83.813V28.0211V31.1082H85.3563H86.8996V32.6517V34.1953H85.3563H83.813V35.7388V37.2823H85.3563H86.8996V38.8259V40.3694H83.813H80.7264V38.8259V37.2823H79.1831H77.6398V35.7388V34.1953H79.1831H80.7264V31.1082V28.0211H77.6398H74.5532V26.4776V24.934H71.3479H68.1426V26.4776V28.0211H66.5993H65.056V26.4776V24.934H63.5127H61.9694V26.4776V28.0211H60.4211H58.8728L58.9372 23.3311L59.0015 18.6412L60.4855 18.5704L61.9694 18.4999V16.9675V15.4354H60.4261H58.8828V13.8918V12.3483H61.9694H65.056V7.71768V3.08707H63.5127H61.9694V1.54354V0H58.8828H55.7962V1.54354V3.08707H58.8828H61.9694V4.63061V6.17414H60.4261H58.8828V9.26121V12.3483H57.3395H55.7962V17.0976V21.847H54.2529H52.7096V20.1733V18.4999L51.2257 18.5704L49.7417 18.6412L49.6714 20.2441L49.6014 21.847H48.0688H46.5364V20.1847V18.5224H48.0797H49.623V16.9789V15.4354H51.1663H52.7096V12.3483V9.26121H54.2529H55.7962V7.71768V6.17414H54.2529H52.7096V3.08707V0H49.623H46.5364V3.08707V6.17414H43.4498H40.3632V4.63061V3.08707H41.9065H43.4498V1.54354V0H41.9065H40.3632V1.54354V3.08707H37.2766H34.19V1.54354V0H32.6467H31.1034V1.54354ZM68.1996 10.8641L68.2613 21.7282L79.1238 21.79L89.9862 21.8517V10.9259V0H79.062H68.1379L68.1996 10.8641ZM34.19 6.17414V9.26121H32.6467H31.1034V6.17414V3.08707H32.6467H34.19V6.17414ZM18.5196 10.9235V18.5224H10.9218H3.32403V10.9235V3.32454H10.9218H18.5196V10.9235ZM86.6622 10.9235V18.5224H79.0644H71.4666V10.9235V3.32454H79.0644H86.6622V10.9235ZM6.1732 10.8047V15.4354H10.8031H15.433V10.8047V6.17414H10.8031H6.1732V10.8047ZM49.623 9.26121V12.3483H48.0797H46.5364V13.8918V15.4354H44.9931H43.4498V20.1847V24.934H41.9065H40.3632V18.6412V12.3483H41.9065H43.4498V10.8047V9.26121H44.9931H46.5364V7.71768V6.17414H48.0797H49.623V9.26121ZM74.5532 10.8047V15.4354H79.1831H83.813V10.8047V6.17414H79.1831H74.5532V10.8047ZM62.0672 18.8475C61.9986 19.0263 61.9751 19.7478 62.0152 20.4504L62.0881 21.7282L63.5721 21.799L65.056 21.8695V20.1961V18.5224H63.6241C62.6309 18.5224 62.1536 18.6222 62.0672 18.8475ZM58.8828 29.5646V31.1082H57.3395H55.7962V29.5646V28.0211H57.3395H58.8828V29.5646ZM31.5783 45.2489V55.1149L33.0622 55.0444L34.5462 54.9736L34.6649 51.0927L34.7836 47.2118L38.2263 51.1511L41.6691 55.0902L43.3905 55.0914C44.6588 55.0921 45.1118 55.0097 45.1118 54.7789C45.1118 54.6063 43.3489 52.4515 41.1942 49.9904C39.0395 47.5293 37.2766 45.4208 37.2766 45.3049C37.2766 45.1893 39.093 43.0217 41.3129 40.4881C43.5329 37.9546 45.3493 35.7694 45.3493 35.6322C45.3493 35.479 44.6341 35.3826 43.4982 35.3826H41.6472L38.3341 39.2882C36.5119 41.4363 34.9408 43.1995 34.843 43.2064C34.7451 43.2133 34.6649 41.4558 34.6649 39.3008V35.3826H33.1216H31.5783V45.2489ZM46.0908 36.3315C45.7973 36.8532 45.614 37.3716 45.6828 37.4835C45.7519 37.5951 46.8332 37.7478 48.0859 37.8223C49.7272 37.9204 50.5414 38.0795 51.0022 38.392L51.6412 38.8259L49.2127 38.8935L46.7843 38.961L46.1565 40.0322C45.8113 40.6213 45.604 41.1787 45.6957 41.2706C45.7873 41.3627 47.2962 41.4729 49.0484 41.5156C50.8009 41.5586 52.2347 41.6337 52.2347 41.6826C52.2347 41.7317 52.1096 42.0466 51.9565 42.3826C51.4811 43.4261 50.2653 43.9836 48.1153 44.1437L46.1803 44.2876L46.1093 45.2569C46.0416 46.1778 46.2073 46.4474 49.4312 50.6593L52.8243 55.0924H54.4148C55.2898 55.0924 56.0652 54.9957 56.1383 54.8777C56.2112 54.7597 54.8833 52.8236 53.1876 50.5755C51.4918 48.3274 50.1625 46.3937 50.2337 46.2783C50.3049 46.1629 50.5369 46.0686 50.7491 46.0686C51.398 46.0686 53.0475 45.1643 53.8873 44.3482C54.3246 43.9231 54.8847 43.1212 55.1319 42.566C55.5096 41.7173 55.6894 41.5567 56.2628 41.5567C57.2811 41.5567 57.6349 41.3549 58.1888 40.4584C58.9474 39.2307 58.6986 38.9446 56.872 38.9446C56.0192 38.9446 55.3213 38.8465 55.3213 38.7266C55.3213 38.6067 55.2587 38.3455 55.1822 38.146C55.0701 37.8539 55.2876 37.7694 56.3 37.7109C57.4665 37.6437 57.604 37.5704 58.2121 36.6887C58.5722 36.1662 58.8707 35.6585 58.875 35.5607C58.8792 35.4628 56.1246 35.3826 52.7533 35.3826H46.6238L46.0908 36.3315ZM12.3464 38.8259V40.3694H13.8897H15.433V41.9129V43.4565H13.8897H12.3464V45V46.5435H10.8031H9.2598V43.4565V40.3694H7.7165H6.1732V38.8259V37.2823H9.2598H12.3464V38.8259ZM77.6398 38.8259V40.3694H79.1831H80.7264V41.9129V43.4565H83.813H86.8996V45V46.5435H85.3563H83.813V49.6306V52.7177H85.3563H86.8996V55.8047V58.8918H85.3563H83.813V61.9789V65.066H85.3563H86.8996V68.2718V71.4776H85.3563H83.813V74.5646V77.6517H80.7264H77.6398V82.2823V86.9129H76.0965H74.5532V85.3694V83.8259H71.3479H68.1426V82.2823V80.7388H63.5127H58.8828V79.1953V77.6517H65.1747H71.4666V79.2066V80.7613L72.9506 80.6908L74.4345 80.6201L74.505 79.147L74.5753 77.6738L76.0483 77.6035L77.5211 77.533L77.5916 76.06L77.6619 74.5867L79.1349 74.5164L80.6077 74.4459L80.6785 72.9617L80.749 71.4776H79.1945H77.6398V65.1847V58.8918H76.0965H74.5532V57.3483V55.8047H76.0965H77.6398V52.7177V49.6306H76.0965H74.5532V48.0871V46.5435H73.0099H71.4666V43.4565V40.3694H73.0099H74.5532V38.8259V37.2823H76.0965H77.6398V38.8259ZM74.5532 43.4565V46.5435H76.0965H77.6398V48.0871V49.6306H79.1831H80.7264V48.0871V46.5435H79.1831H77.6398V43.4565V40.3694H76.0965H74.5532V43.4565ZM58.8828 51.1741V55.8047H60.4261H61.9694V51.1741V46.5435H60.4261H58.8828V51.1741ZM71.4666 51.1741V52.7177H69.8046H68.1426V51.1741V49.6306H69.8046H71.4666V51.1741ZM18.6879 55.9529C18.5953 56.0455 18.5196 56.7446 18.5196 57.5067V58.8918H20.1816H21.8436V60.4354V61.9789H17.095H12.3464V60.4354V58.8918H10.8031H9.2598V60.4354V61.9789H4.6299H0V63.5203V65.0617L12.4058 65.1232L24.8115 65.1847L24.8749 71.4294L24.9381 77.6743L26.4182 77.6035L27.8981 77.533V69.8153V62.0976L26.4253 62.0271L24.9523 61.9568L24.882 60.4836L24.8115 59.0106L23.3387 58.94L21.8657 58.8697L21.7954 57.3965L21.7249 55.9235L20.2906 55.8541C19.5016 55.8159 18.7805 55.8603 18.6879 55.9529ZM40.3632 57.3483V58.8918H41.9065H43.4498V57.3483V55.8047H41.9065H40.3632V57.3483ZM46.5364 57.3483V58.8918H49.623H52.7096V57.3483V55.8047H49.623H46.5364V57.3483ZM77.6398 57.3483V58.8918H80.7264H83.813V57.3483V55.8047H80.7264H77.6398V57.3483ZM74.4345 69.8153V74.4459H69.8046H65.1747L65.1099 70.0604C65.0741 67.6484 65.0983 65.5357 65.1638 65.3654C65.2569 65.1225 66.2693 65.0695 69.8585 65.1201L74.4345 65.1847V69.8153ZM80.7264 66.6095V68.153H82.2697H83.813V66.6095V65.066H82.2697H80.7264V66.6095ZM0 79.0741V90H10.9242H21.8484L21.7866 79.1359L21.7249 68.2718L10.8625 68.21L0 68.1483V79.0741ZM68.2447 68.4667C68.1737 68.652 68.1483 69.3784 68.1884 70.081L68.2613 71.3588H69.8046H71.3479V69.8153V68.2718L69.8609 68.201C68.7476 68.148 68.3413 68.2148 68.2447 68.4667ZM18.5196 79.0765V86.6755H10.9218H3.32403V79.0765V71.4776H10.9218H18.5196V79.0765ZM6.1732 79.1953V83.8259H10.8031H15.433V79.1953V74.5646H10.8031H6.1732V79.1953ZM31.1034 83.8259V90H32.6467H34.19V83.8259V77.6517H32.6467H31.1034V83.8259ZM37.2766 86.9129V90H38.8199H40.3632V86.9129V83.8259H38.8199H37.2766V86.9129ZM65.056 85.3694V86.9129H63.5127H61.9694V85.3694V83.8259H63.5127H65.056V85.3694ZM83.813 85.3694V86.9129H82.2697H80.7264V85.3694V83.8259H82.2697H83.813V85.3694Z" fill="#282828"/>
</svg>
