<svg width="22" height="17" viewBox="0 0 22 17" fill="none" xmlns="http://www.w3.org/2000/svg">
<path d="M22 2.01651C21.191 2.35727 20.3219 2.58752 19.4082 2.69159C20.3509 2.15539 21.0562 1.31147 21.3925 0.317296C20.5068 0.81738 19.5374 1.16939 18.5265 1.35801C17.8467 0.668066 16.9462 0.210762 15.965 0.057094C14.9837 -0.0965741 13.9766 0.0619913 13.0999 0.508172C12.2231 0.954353 11.5259 1.66319 11.1164 2.52462C10.7069 3.38606 10.6081 4.35189 10.8353 5.27219C9.04057 5.18653 7.28485 4.74313 5.68208 3.97075C4.07931 3.19837 2.66531 2.11428 1.53184 0.78884C1.14428 1.42432 0.921431 2.16111 0.921431 2.94578C0.920998 3.65217 1.104 4.34774 1.45421 4.97078C1.80442 5.59382 2.311 6.12505 2.92901 6.51736C2.21228 6.49568 1.51137 6.31159 0.884612 5.98042V6.03568C0.88454 7.02642 1.24508 7.98667 1.90505 8.7535C2.56502 9.52033 3.48377 10.0465 4.50542 10.2427C3.84054 10.4138 3.14346 10.439 2.46684 10.3164C2.75508 11.1689 3.31656 11.9143 4.07267 12.4484C4.82878 12.9825 5.74166 13.2785 6.68352 13.2949C5.08466 14.4879 3.11008 15.1351 1.07742 15.1322C0.71736 15.1323 0.357601 15.1123 0 15.0724C2.06326 16.3334 4.46505 17.0026 6.918 17C15.2215 17 19.7609 10.4629 19.7609 4.79328C19.7609 4.60908 19.756 4.42304 19.7473 4.23884C20.6302 3.63189 21.3924 2.8803 21.9981 2.01927L22 2.01651Z" fill="white"/>
</svg>
